<svg width="53" height="50" viewBox="0 0 53 50" fill="none" xmlns="http://www.w3.org/2000/svg">
<ellipse cx="14.9175" cy="22.633" rx="13.5455" ry="4.80092" fill="#EAB308"/>
<ellipse cx="37.7222" cy="4.80092" rx="13.5455" ry="4.80092" fill="#EAB308"/>
<path d="M0 33.6105V25.9805C0 25.9805 3.42923 29.6669 11.0593 30.1813C14.1659 30.3907 15.9278 30.4201 19.0322 30.1813C25.7192 29.6669 29.7486 25.9805 29.7486 25.9805V33.6105C29.7486 33.6105 27.9482 38.7544 19.0322 39.2687C15.9238 39.4481 14.1577 39.576 11.0593 39.2687C0.685846 38.24 0 33.6105 0 33.6105Z" fill="#EAB308"/>
<path d="M22.8047 15.8644V8.23438C22.8047 8.23438 26.2339 11.9208 33.864 12.4352C36.9705 12.6446 38.7325 12.674 41.8369 12.4352C48.5239 11.9208 52.5533 8.23438 52.5533 8.23438V15.8644C52.5533 15.8644 50.7529 21.0083 41.8369 21.5226C38.7285 21.702 36.967 21.7794 33.864 21.5226C32.6886 21.4254 30.8634 21.1797 30.8634 21.1797C30.8634 21.1797 30.1775 19.2936 27.2627 17.6648C25.6237 16.7488 22.8047 15.8644 22.8047 15.8644Z" fill="#EAB308"/>
<path d="M0 44.672V38.2422C0 38.2422 3.42923 41.5 11.0593 42.0143C14.1659 42.2238 15.9278 42.2531 19.0322 42.0143C25.7192 41.5 29.7486 38.2422 29.7486 38.2422V44.672C29.7486 44.672 27.9482 49.3015 19.0322 49.8158C15.9238 49.9952 14.1577 50.1231 11.0593 49.8158C0.685846 48.7871 0 44.672 0 44.672Z" fill="#EAB308"/>
<path d="M32.75 31.8948V24.3505C32.75 24.3505 35.9352 24.5715 37.9796 24.6077C47.6672 24.7791 52.6395 20.6641 52.6395 20.6641V26.3223C52.6395 26.3223 52.0394 32.0663 37.9796 32.0663C35.9362 32.0663 32.75 31.8948 32.75 31.8948Z" fill="#EAB308"/>
<path d="M32.75 42.4417V34.8974C32.75 34.8974 35.9352 35.1184 37.9796 35.1546C47.6672 35.326 52.6395 31.2109 52.6395 31.2109V36.8692C52.6395 36.8692 52.0394 42.6131 37.9796 42.6131C35.9362 42.6131 32.75 42.4417 32.75 42.4417Z" fill="#EAB308"/>
</svg>
