<svg width="14" height="14" viewBox="0 0 14 14" fill="none" xmlns="http://www.w3.org/2000/svg">
<path d="M12.7969 13.125H12.25V0.65625C12.25 0.293809 11.9562 0 11.5938 0H2.40625C2.04381 0 1.75 0.293809 1.75 0.65625V13.125H1.20312C1.02192 13.125 0.875 13.2719 0.875 13.4531V14H13.125V13.4531C13.125 13.2719 12.9781 13.125 12.7969 13.125ZM4.375 2.07812C4.375 1.89692 4.52192 1.75 4.70312 1.75H5.79688C5.97808 1.75 6.125 1.89692 6.125 2.07812V3.17188C6.125 3.35308 5.97808 3.5 5.79688 3.5H4.70312C4.52192 3.5 4.375 3.35308 4.375 3.17188V2.07812ZM4.375 4.70312C4.375 4.52192 4.52192 4.375 4.70312 4.375H5.79688C5.97808 4.375 6.125 4.52192 6.125 4.70312V5.79688C6.125 5.97808 5.97808 6.125 5.79688 6.125H4.70312C4.52192 6.125 4.375 5.97808 4.375 5.79688V4.70312ZM5.79688 8.75H4.70312C4.52192 8.75 4.375 8.60308 4.375 8.42188V7.32812C4.375 7.14692 4.52192 7 4.70312 7H5.79688C5.97808 7 6.125 7.14692 6.125 7.32812V8.42188C6.125 8.60308 5.97808 8.75 5.79688 8.75ZM7.875 13.125H6.125V10.8281C6.125 10.6469 6.27192 10.5 6.45312 10.5H7.54688C7.72808 10.5 7.875 10.6469 7.875 10.8281V13.125ZM9.625 8.42188C9.625 8.60308 9.47808 8.75 9.29688 8.75H8.20312C8.02192 8.75 7.875 8.60308 7.875 8.42188V7.32812C7.875 7.14692 8.02192 7 8.20312 7H9.29688C9.47808 7 9.625 7.14692 9.625 7.32812V8.42188ZM9.625 5.79688C9.625 5.97808 9.47808 6.125 9.29688 6.125H8.20312C8.02192 6.125 7.875 5.97808 7.875 5.79688V4.70312C7.875 4.52192 8.02192 4.375 8.20312 4.375H9.29688C9.47808 4.375 9.625 4.52192 9.625 4.70312V5.79688ZM9.625 3.17188C9.625 3.35308 9.47808 3.5 9.29688 3.5H8.20312C8.02192 3.5 7.875 3.35308 7.875 3.17188V2.07812C7.875 1.89692 8.02192 1.75 8.20312 1.75H9.29688C9.47808 1.75 9.625 1.89692 9.625 2.07812V3.17188Z" fill="#60A5FA"/>
</svg>
