<svg width="13" height="10" viewBox="0 0 13 10" fill="none" xmlns="http://www.w3.org/2000/svg">
<path d="M10.5 5.83333V1.16667C10.5 0.525 9.975 0 9.33333 0H1.16667C0.525 0 0 0.525 0 1.16667V5.83333C0 6.475 0.525 7 1.16667 7H9.33333C9.975 7 10.5 6.475 10.5 5.83333V5.83333M9.33333 5.83333H1.16667V1.16667H9.33333V5.83333V5.83333M5.25 1.75C4.28167 1.75 3.5 2.53167 3.5 3.5Cnan nan 4.28167 5.25 5.25 5.25Cnan nan 7 4.46833 7 3.5Cnan nan 6.21833 1.75 5.25 1.75V1.75M12.8333 1.75V8.16667C12.8333 8.80833 12.3083 9.33333 11.6667 9.33333H1.75V8.16667H11.6667V1.75H12.8333V1.75" fill="#60A5FA"/>
</svg>
