<svg width="172" height="52" viewBox="0 0 172 52" fill="none" xmlns="http://www.w3.org/2000/svg">
<path d="M159.347 36.0684V17.1523H171.975V20.3684H163.215V24.934H171.307V28.0952H163.215V32.8523H172V36.0684H159.347Z" fill="white"/>
<path d="M142.97 36.0684V17.1523H150.328C151.759 17.1523 152.977 17.4064 153.981 17.9146C154.985 18.4227 155.752 19.1386 156.28 20.0622C156.808 20.9859 157.072 22.0676 157.072 23.3076C157.072 24.5566 156.805 25.6311 156.27 26.5309C155.734 27.4308 154.958 28.1206 153.94 28.6004C152.922 29.0802 151.688 29.3201 150.238 29.3201H145.255V26.1805H149.625C150.411 26.1805 151.059 26.0722 151.569 25.8556C152.079 25.639 152.459 25.318 152.71 24.8925C152.962 24.4671 153.087 23.9388 153.087 23.3076C153.087 22.6686 152.962 22.1302 152.71 21.6924C152.459 21.2546 152.078 20.9212 151.566 20.6922C151.054 20.4633 150.403 20.3488 149.613 20.3488H146.838V36.0684H142.97ZM153.463 36.0684L148.879 27.4607H153.064L157.752 36.0684H153.463Z" fill="white"/>
<path d="M131.932 36.3223C130.266 36.3223 128.768 35.9411 127.438 35.1788C126.108 34.4165 125.057 33.3119 124.286 31.8649C123.515 30.418 123.129 28.6707 123.129 26.623C123.129 24.5623 123.515 22.8074 124.286 21.3582C125.057 19.909 126.108 18.8034 127.438 18.0414C128.768 17.2794 130.266 16.8984 131.932 16.8984C133.599 16.8984 135.095 17.2794 136.42 18.0414C137.746 18.8034 138.795 19.909 139.566 21.3582C140.338 22.8074 140.724 24.5623 140.724 26.623C140.724 28.6753 140.338 30.4249 139.566 31.8718C138.795 33.3187 137.746 34.4222 136.42 35.1822C135.095 35.9423 133.599 36.3223 131.932 36.3223ZM131.932 32.8812C132.909 32.8812 133.762 32.6413 134.491 32.1614C135.221 31.6816 135.788 30.9754 136.194 30.043C136.6 29.1106 136.803 27.9706 136.803 26.623C136.803 25.2631 136.6 24.1158 136.194 23.1811C135.788 22.2464 135.221 21.5392 134.491 21.0593C133.762 20.5794 132.909 20.3395 131.932 20.3395C130.956 20.3395 130.103 20.5804 129.371 21.0622C128.64 21.544 128.07 22.2523 127.662 23.187C127.254 24.1217 127.05 25.267 127.05 26.623C127.05 27.9706 127.254 29.1096 127.662 30.0401C128.07 30.9705 128.64 31.6767 129.371 32.1585C130.103 32.6403 130.956 32.8812 131.932 32.8812Z" fill="white"/>
<path d="M113.356 36.3223C111.685 36.3223 110.189 35.9411 108.868 35.1788C107.548 34.4165 106.506 33.3119 105.743 31.8649C104.981 30.418 104.6 28.6707 104.6 26.623C104.6 24.5623 104.984 22.8074 105.754 21.3582C106.523 19.909 107.569 18.8034 108.892 18.0414C110.215 17.2794 111.703 16.8984 113.356 16.8984C114.428 16.8984 115.427 17.0484 116.352 17.3482C117.278 17.6481 118.099 18.0862 118.815 18.6625C119.531 19.2387 120.118 19.943 120.577 20.7752C121.035 21.6075 121.335 22.5559 121.476 23.6206H117.567C117.478 23.1015 117.314 22.6399 117.076 22.2359C116.837 21.8318 116.538 21.4879 116.176 21.2043C115.815 20.9206 115.403 20.7055 114.94 20.5591C114.477 20.4127 113.977 20.3395 113.438 20.3395C112.458 20.3395 111.597 20.5849 110.857 21.0759C110.116 21.5669 109.542 22.2797 109.133 23.2144C108.725 24.1491 108.52 25.2853 108.52 26.623C108.52 27.9843 108.728 29.1311 109.143 30.0636C109.558 30.996 110.134 31.6987 110.869 32.1717C111.605 32.6447 112.457 32.8812 113.424 32.8812C113.963 32.8812 114.463 32.8071 114.923 32.6587C115.384 32.5103 115.797 32.2953 116.163 32.0135C116.528 31.7318 116.833 31.3879 117.076 30.9819C117.319 30.5759 117.487 30.1153 117.581 29.6001H121.49C121.384 30.4781 121.124 31.3185 120.709 32.1213C120.294 32.9242 119.739 33.6422 119.043 34.2752C118.347 34.9083 117.523 35.4078 116.57 35.7736C115.617 36.1394 114.546 36.3223 113.356 36.3223Z" fill="white"/>
<path d="M86.0039 36.0684V17.1523H90.3158L96.2707 26.728C96.5735 27.2194 96.882 27.7517 97.1962 28.3248C97.5105 28.898 97.8297 29.5358 98.1539 30.2382C98.4781 30.9406 98.8029 31.7321 99.1281 32.6128H98.7316C98.6739 31.9078 98.6202 31.1591 98.5705 30.3668C98.5208 29.5744 98.4803 28.8132 98.4491 28.0832C98.4179 27.3532 98.4023 26.7365 98.4023 26.2329V17.1523H102.352V36.0684H98.0286L92.622 27.3869C92.2232 26.7322 91.8542 26.0992 91.515 25.488C91.1757 24.8767 90.823 24.199 90.4566 23.4548C90.0903 22.7106 89.6532 21.8236 89.1452 20.7937H89.6361C89.6919 21.7058 89.7447 22.5824 89.7944 23.4237C89.8441 24.265 89.8841 25.0253 89.9143 25.7045C89.9445 26.3838 89.9596 26.9407 89.9596 27.3753V36.0684H86.0039Z" fill="white"/>
<path d="M83.2419 17.1523V36.0684H79.374V17.1523H83.2419Z" fill="white"/>
<path d="M64.8086 36.0684V17.1523H77.2182V20.3684H68.6764V25.6501H76.3848V28.8113H68.6764V36.0684H64.8086Z" fill="white"/>
<rect width="51.8466" height="52" rx="8" fill="#2563EB"/>
<path d="M12.1546 20.1449L24.1482 25.9535C24.4605 26.1028 24.8773 26.1808 25.2898 26.1808C25.7024 26.1808 26.1192 26.1028 26.4309 25.9535L38.4244 20.1449C39.0551 19.8402 39.0551 19.3418 38.4244 19.0359L26.4309 13.2273C26.1192 13.078 25.7018 13 25.2898 13C24.8779 13 24.4605 13.078 24.1482 13.2273L12.1546 19.0359C11.524 19.3418 11.524 19.839 12.1546 20.1449Z" fill="white"/>
<path d="M38.4236 26.0949C38.5658 25.8036 36.2333 25.0358 35.9429 24.8932C35.9429 24.8932 35.5741 24.7585 35.2691 24.9005L26.4228 29.1801C26.0627 29.336 25.6739 29.4137 25.2818 29.408C24.8704 29.408 24.4524 29.3294 24.1407 29.1801C24.1407 29.1801 15.826 25.1583 15.436 24.9645C15.0137 24.7603 14.8922 24.7603 14.5076 24.9431L12.138 26.0876C11.5074 26.3922 11.5074 26.8913 12.138 27.1966L24.1334 33.0052C24.4451 33.1545 24.8625 33.2325 25.2745 33.2325C25.6864 33.2325 26.1038 33.1545 26.4161 33.0052L38.4097 27.1978C39.0543 26.898 39.0543 26.4008 38.4236 26.0949Z" fill="white"/>
<path d="M38.4233 33.1558C38.5673 32.8645 36.233 32.0967 35.9425 31.9523C35.9425 31.9523 35.5737 31.8176 35.2687 31.9596L26.4297 36.2484C26.0696 36.404 25.6807 36.4815 25.2887 36.4757C24.8773 36.4757 24.4593 36.3977 24.147 36.2484C24.147 36.2484 15.8323 32.2265 15.4429 32.0327C15.0176 31.8261 14.8961 31.8261 14.5139 32.0114L12.1444 33.1558C11.5131 33.4605 11.5131 33.9589 12.1444 34.2648L24.1379 40.0734C24.4496 40.2294 24.867 40.3007 25.279 40.3007C25.6909 40.3007 26.1083 40.2227 26.42 40.0734L38.416 34.2679C39.0539 33.9589 39.0539 33.4617 38.4233 33.1558Z" fill="white"/>
</svg>
