<svg width="137" height="44" viewBox="0 0 137 44" fill="none" xmlns="http://www.w3.org/2000/svg">
<rect y="2" width="40" height="40" rx="8" fill="#2563EB"/>
<path d="M9.87176 16.4961L19.1249 20.9642C19.3658 21.0791 19.6874 21.1391 20.0057 21.1391C20.3239 21.1391 20.6455 21.0791 20.886 20.9642L30.1391 16.4961C30.6257 16.2617 30.6257 15.8783 30.1391 15.643L20.886 11.1748C20.6455 11.06 20.3235 11 20.0057 11C19.6879 11 19.3658 11.06 19.1249 11.1748L9.87176 15.643C9.3852 15.8783 9.3852 16.2608 9.87176 16.4961Z" fill="white"/>
<path d="M30.1386 21.074C30.2483 20.85 28.4487 20.2593 28.2247 20.1496C28.2247 20.1496 27.9402 20.0461 27.7048 20.1553L20.8798 23.4473C20.6021 23.5672 20.3021 23.627 19.9995 23.6226C19.6822 23.6226 19.3597 23.5621 19.1192 23.4473C19.1192 23.4473 12.7044 20.3536 12.4034 20.2045C12.0777 20.0475 11.9839 20.0475 11.6872 20.1881L9.85906 21.0684C9.3725 21.3028 9.3725 21.6867 9.85906 21.9215L19.1136 26.3896C19.3541 26.5045 19.6761 26.5645 19.9939 26.5645C20.3117 26.5645 20.6337 26.5045 20.8747 26.3896L30.1278 21.9225C30.6252 21.6918 30.6252 21.3093 30.1386 21.074Z" fill="white"/>
<path d="M30.1387 26.5057C30.2498 26.2816 28.4488 25.691 28.2248 25.5799C28.2248 25.5799 27.9402 25.4763 27.7049 25.5855L20.8855 28.8846C20.6077 29.0043 20.3077 29.0639 20.0052 29.0594C19.6879 29.0594 19.3654 28.9994 19.1245 28.8846C19.1245 28.8846 12.7096 25.7908 12.4091 25.6418C12.081 25.4828 11.9873 25.4828 11.6924 25.6253L9.8643 26.5057C9.37727 26.74 9.37727 27.1235 9.8643 27.3588L19.1174 31.8269C19.3579 31.9469 19.6799 32.0018 19.9977 32.0018C20.3155 32.0018 20.6376 31.9418 20.878 31.8269L30.133 27.3611C30.6252 27.1235 30.6252 26.741 30.1387 26.5057Z" fill="white"/>
<path d="M53.1833 21V7.9043H61.8V10.1308H55.869V13.7873H61.2213V15.9759H55.869V21H53.1833ZM66.4334 7.9043V21H63.7478V7.9043H66.4334ZM68.8015 21V7.9043H71.7955L75.9303 14.5336C76.1405 14.8738 76.3548 15.2423 76.573 15.6391C76.7912 16.0359 77.0128 16.4774 77.2379 16.9637C77.4631 17.45 77.6885 17.998 77.9143 18.6077H77.6391C77.599 18.1196 77.5617 17.6013 77.5272 17.0527C77.4927 16.5042 77.4646 15.9772 77.4429 15.4718C77.4212 14.9665 77.4104 14.5394 77.4104 14.1908V7.9043H80.153V21H77.1509L73.3968 14.9898C73.1199 14.5365 72.8637 14.0983 72.6281 13.6751C72.3926 13.2519 72.1476 12.7827 71.8933 12.2675C71.6389 11.7523 71.3354 11.1382 70.9827 10.4253H71.3235C71.3623 11.0567 71.3989 11.6636 71.4335 12.246C71.468 12.8284 71.4957 13.3548 71.5167 13.8251C71.5377 14.2953 71.5482 14.6809 71.5482 14.9817V21H68.8015ZM88.2435 21.1758C87.0832 21.1758 86.0445 20.9119 85.1274 20.3842C84.2103 19.8564 83.487 19.0917 82.9575 18.0899C82.4281 17.0882 82.1633 15.8786 82.1633 14.4609C82.1633 13.0343 82.4304 11.8193 82.9646 10.816C83.4988 9.81272 84.2253 9.04731 85.144 8.51979C86.0627 7.99227 87.0958 7.72852 88.2435 7.72852C88.9878 7.72852 89.6814 7.83231 90.324 8.03991C90.9667 8.24751 91.5366 8.5508 92.0339 8.94976C92.5311 9.34873 92.9388 9.83629 93.257 10.4124C93.5753 10.9886 93.7835 11.6452 93.8817 12.3823H91.1675C91.1054 12.0229 90.9916 11.7034 90.8262 11.4237C90.6607 11.1439 90.4526 10.9059 90.2017 10.7095C89.9509 10.5131 89.6648 10.3642 89.3434 10.2628C89.022 10.1614 88.6744 10.1108 88.3004 10.1108C87.6197 10.1108 87.0222 10.2807 86.5081 10.6206C85.9939 10.9605 85.595 11.454 85.3113 12.1011C85.0276 12.7482 84.8857 13.5348 84.8857 14.4609C84.8857 15.4033 85.0299 16.1973 85.3181 16.8428C85.6063 17.4883 86.0059 17.9748 86.5169 18.3023C87.0279 18.6298 87.6192 18.7935 88.2909 18.7935C88.6649 18.7935 89.0117 18.7422 89.3315 18.6395C89.6513 18.5367 89.9382 18.3879 90.1922 18.1928C90.4462 17.9978 90.6575 17.7597 90.8262 17.4786C90.9948 17.1976 91.1118 16.8787 91.177 16.5219H93.8912C93.8178 17.1298 93.637 17.7116 93.3489 18.2675C93.0607 18.8233 92.6751 19.3203 92.1922 19.7586C91.7092 20.1969 91.1368 20.5427 90.4752 20.7959C89.8136 21.0492 89.0696 21.1758 88.2435 21.1758ZM101.591 21.1758C100.434 21.1758 99.394 20.9119 98.4706 20.3842C97.5471 19.8564 96.8176 19.0917 96.2821 18.0899C95.7465 17.0882 95.4788 15.8786 95.4788 14.4609C95.4788 13.0343 95.7465 11.8193 96.2821 10.816C96.8176 9.81272 97.5471 9.04731 98.4706 8.51979C99.394 7.99227 100.434 7.72852 101.591 7.72852C102.749 7.72852 103.787 7.99227 104.708 8.51979C105.628 9.04731 106.357 9.81272 106.892 10.816C107.428 11.8193 107.696 13.0343 107.696 14.4609C107.696 15.8817 107.428 17.093 106.892 18.0947C106.357 19.0964 105.628 19.8604 104.708 20.3865C103.787 20.9127 102.749 21.1758 101.591 21.1758ZM101.591 18.7935C102.269 18.7935 102.862 18.6274 103.368 18.2952C103.875 17.963 104.269 17.4741 104.551 16.8286C104.833 16.1831 104.974 15.3939 104.974 14.4609C104.974 13.5195 104.833 12.7252 104.551 12.0781C104.269 11.431 103.875 10.9413 103.368 10.6091C102.862 10.2769 102.269 10.1108 101.591 10.1108C100.914 10.1108 100.321 10.2775 99.8133 10.6111C99.3055 10.9447 98.9099 11.435 98.6264 12.0821C98.3429 12.7292 98.2012 13.5222 98.2012 14.4609C98.2012 15.3939 98.3429 16.1824 98.6264 16.8266C98.9099 17.4707 99.3055 17.9596 99.8133 18.2932C100.321 18.6267 100.914 18.7935 101.591 18.7935ZM109.706 21V7.9043H114.815C115.809 7.9043 116.655 8.0802 117.352 8.43199C118.049 8.78379 118.581 9.27941 118.948 9.91884C119.315 10.5583 119.498 11.3072 119.498 12.1656C119.498 13.0303 119.312 13.7742 118.941 14.3972C118.569 15.0201 118.03 15.4977 117.323 15.8299C116.616 16.162 115.759 16.3281 114.752 16.3281H111.292V14.1545H114.327C114.873 14.1545 115.323 14.0796 115.677 13.9296C116.031 13.7797 116.295 13.5574 116.469 13.2629C116.644 12.9684 116.731 12.6026 116.731 12.1656C116.731 11.7232 116.644 11.3505 116.469 11.0474C116.295 10.7443 116.03 10.5135 115.675 10.355C115.319 10.1965 114.867 10.1173 114.319 10.1173H112.391V21H109.706ZM116.992 21L113.809 15.0408H116.715L119.97 21H116.992ZM121.527 21V7.9043H130.295V10.1308H124.213V13.2916H129.832V15.4801H124.213V18.7735H130.313V21H121.527Z" fill="white"/>
<path d="M53.0547 40V31.2695H58.334V32.2539H54.168V35.2422H57.9355V36.2266H54.168V40H53.0547ZM60.0098 40V33.4492H61.0645V40H60.0098ZM60.543 32.377C60.3438 32.377 60.1719 32.3086 60.0273 32.1719C59.8828 32.0352 59.8105 31.8711 59.8105 31.6797C59.8105 31.4844 59.8828 31.3193 60.0273 31.1846C60.1719 31.0498 60.3438 30.9824 60.543 30.9824C60.7461 30.9824 60.9199 31.0498 61.0645 31.1846C61.209 31.3193 61.2812 31.4844 61.2812 31.6797C61.2812 31.8711 61.209 32.0352 61.0645 32.1719C60.9199 32.3086 60.7461 32.377 60.543 32.377ZM63.9707 36.0742V40H62.916V33.4492H63.9297L63.9355 35.0371H63.7891C63.9883 34.4316 64.2725 34.002 64.6416 33.748C65.0107 33.4941 65.4434 33.3672 65.9395 33.3672C66.3809 33.3672 66.7676 33.458 67.0996 33.6396C67.4316 33.8213 67.6904 34.0947 67.876 34.46C68.0615 34.8252 68.1543 35.2852 68.1543 35.8398V40H67.0996V35.9277C67.0996 35.4238 66.9678 35.0293 66.7041 34.7441C66.4404 34.459 66.0801 34.3164 65.623 34.3164C65.3105 34.3164 65.0293 34.3848 64.7793 34.5215C64.5293 34.6582 64.332 34.8574 64.1875 35.1191C64.043 35.3809 63.9707 35.6992 63.9707 36.0742ZM71.8398 40.1523C71.4258 40.1523 71.0498 40.0742 70.7119 39.918C70.374 39.7617 70.1055 39.5332 69.9062 39.2324C69.707 38.9316 69.6074 38.5664 69.6074 38.1367C69.6074 37.7617 69.6816 37.457 69.8301 37.2227C69.9785 36.9883 70.1768 36.8037 70.4248 36.6689C70.6729 36.5342 70.9473 36.4336 71.248 36.3672C71.5488 36.3008 71.8516 36.248 72.1562 36.209C72.5469 36.1582 72.8652 36.1191 73.1113 36.0918C73.3574 36.0645 73.54 36.0176 73.6592 35.9512C73.7783 35.8848 73.8379 35.7715 73.8379 35.6113V35.5762C73.8379 35.3027 73.7871 35.0713 73.6855 34.8818C73.584 34.6924 73.4316 34.5469 73.2285 34.4453C73.0254 34.3438 72.7715 34.293 72.4668 34.293C72.1543 34.293 71.8867 34.3418 71.6641 34.4395C71.4414 34.5371 71.2607 34.6592 71.1221 34.8057C70.9834 34.9521 70.8789 35.1016 70.8086 35.2539L69.7949 34.9199C69.9629 34.5215 70.1895 34.21 70.4746 33.9854C70.7598 33.7607 71.0742 33.6016 71.418 33.5078C71.7617 33.4141 72.1016 33.3672 72.4375 33.3672C72.6562 33.3672 72.9053 33.3936 73.1846 33.4463C73.4639 33.499 73.7334 33.6035 73.9932 33.7598C74.2529 33.916 74.4678 34.1475 74.6377 34.4541C74.8076 34.7607 74.8926 35.1699 74.8926 35.6816V40H73.8555V39.1094H73.7852C73.7109 39.2617 73.5918 39.4189 73.4277 39.5811C73.2637 39.7432 73.0508 39.8789 72.7891 39.9883C72.5273 40.0977 72.2109 40.1523 71.8398 40.1523ZM72.0215 39.2207C72.4121 39.2207 72.7422 39.1445 73.0117 38.9922C73.2812 38.8398 73.4863 38.6416 73.627 38.3975C73.7676 38.1533 73.8379 37.8984 73.8379 37.6328V36.7246C73.7949 36.7754 73.7012 36.8213 73.5566 36.8623C73.4121 36.9033 73.2471 36.9395 73.0615 36.9707C72.876 37.002 72.6963 37.0283 72.5225 37.0498C72.3486 37.0713 72.2109 37.0879 72.1094 37.0996C71.8555 37.1309 71.6182 37.1846 71.3975 37.2607C71.1768 37.3369 71 37.4482 70.8672 37.5947C70.7344 37.7412 70.668 37.9395 70.668 38.1895C70.668 38.416 70.7266 38.6055 70.8438 38.7578C70.9609 38.9102 71.1211 39.0254 71.3242 39.1035C71.5273 39.1816 71.7598 39.2207 72.0215 39.2207ZM77.7988 36.0742V40H76.7441V33.4492H77.7578L77.7637 35.0371H77.6172C77.8164 34.4316 78.1006 34.002 78.4697 33.748C78.8389 33.4941 79.2715 33.3672 79.7676 33.3672C80.209 33.3672 80.5957 33.458 80.9277 33.6396C81.2598 33.8213 81.5186 34.0947 81.7041 34.46C81.8896 34.8252 81.9824 35.2852 81.9824 35.8398V40H80.9277V35.9277C80.9277 35.4238 80.7959 35.0293 80.5322 34.7441C80.2686 34.459 79.9082 34.3164 79.4512 34.3164C79.1387 34.3164 78.8574 34.3848 78.6074 34.5215C78.3574 34.6582 78.1602 34.8574 78.0156 35.1191C77.8711 35.3809 77.7988 35.6992 77.7988 36.0742ZM86.5 40.1406C85.9062 40.1406 85.3857 40 84.9385 39.7188C84.4912 39.4375 84.1426 39.043 83.8926 38.5352C83.6426 38.0273 83.5176 37.4375 83.5176 36.7656C83.5176 36.082 83.6426 35.4854 83.8926 34.9756C84.1426 34.4658 84.4912 34.0703 84.9385 33.7891C85.3857 33.5078 85.9062 33.3672 86.5 33.3672C86.8164 33.3672 87.1152 33.4082 87.3965 33.4902C87.6777 33.5723 87.9346 33.6904 88.167 33.8447C88.3994 33.999 88.5996 34.1885 88.7676 34.4131C88.9355 34.6377 89.0645 34.8926 89.1543 35.1777L88.1406 35.4648C88.0938 35.2969 88.0215 35.1426 87.9238 35.002C87.8262 34.8613 87.708 34.7393 87.5693 34.6357C87.4307 34.5322 87.2715 34.4521 87.0918 34.3955C86.9121 34.3389 86.7148 34.3105 86.5 34.3105C86.0625 34.3105 85.7031 34.4248 85.4219 34.6533C85.1406 34.8818 84.9316 35.1816 84.7949 35.5527C84.6582 35.9238 84.5898 36.3281 84.5898 36.7656C84.5898 37.1953 84.6582 37.5947 84.7949 37.9639C84.9316 38.333 85.1406 38.6309 85.4219 38.8574C85.7031 39.084 86.0625 39.1973 86.5 39.1973C86.7188 39.1973 86.9199 39.168 87.1035 39.1094C87.2871 39.0508 87.4502 38.9678 87.5928 38.8604C87.7354 38.7529 87.8555 38.625 87.9531 38.4766C88.0508 38.3281 88.123 38.166 88.1699 37.9902L89.1777 38.2773C89.0918 38.5703 88.9639 38.8311 88.7939 39.0596C88.624 39.2881 88.4219 39.4834 88.1875 39.6455C87.9531 39.8076 87.6934 39.9307 87.4082 40.0146C87.123 40.0986 86.8203 40.1406 86.5 40.1406ZM90.6895 40V33.4492H91.7441V40H90.6895ZM91.2227 32.377C91.0234 32.377 90.8516 32.3086 90.707 32.1719C90.5625 32.0352 90.4902 31.8711 90.4902 31.6797C90.4902 31.4844 90.5625 31.3193 90.707 31.1846C90.8516 31.0498 91.0234 30.9824 91.2227 30.9824C91.4258 30.9824 91.5996 31.0498 91.7441 31.1846C91.8887 31.3193 91.9609 31.4844 91.9609 31.6797C91.9609 31.8711 91.8887 32.0352 91.7441 32.1719C91.5996 32.3086 91.4258 32.377 91.2227 32.377ZM95.4297 40.1523C95.0156 40.1523 94.6396 40.0742 94.3018 39.918C93.9639 39.7617 93.6953 39.5332 93.4961 39.2324C93.2969 38.9316 93.1973 38.5664 93.1973 38.1367C93.1973 37.7617 93.2715 37.457 93.4199 37.2227C93.5684 36.9883 93.7666 36.8037 94.0146 36.6689C94.2627 36.5342 94.5371 36.4336 94.8379 36.3672C95.1387 36.3008 95.4414 36.248 95.7461 36.209C96.1367 36.1582 96.4551 36.1191 96.7012 36.0918C96.9473 36.0645 97.1299 36.0176 97.249 35.9512C97.3682 35.8848 97.4277 35.7715 97.4277 35.6113V35.5762C97.4277 35.3027 97.377 35.0713 97.2754 34.8818C97.1738 34.6924 97.0215 34.5469 96.8184 34.4453C96.6152 34.3438 96.3613 34.293 96.0566 34.293C95.7441 34.293 95.4766 34.3418 95.2539 34.4395C95.0312 34.5371 94.8506 34.6592 94.7119 34.8057C94.5732 34.9521 94.4688 35.1016 94.3984 35.2539L93.3848 34.9199C93.5527 34.5215 93.7793 34.21 94.0645 33.9854C94.3496 33.7607 94.6641 33.6016 95.0078 33.5078C95.3516 33.4141 95.6914 33.3672 96.0273 33.3672C96.2461 33.3672 96.4951 33.3936 96.7744 33.4463C97.0537 33.499 97.3232 33.6035 97.583 33.7598C97.8428 33.916 98.0576 34.1475 98.2275 34.4541C98.3975 34.7607 98.4824 35.1699 98.4824 35.6816V40H97.4453V39.1094H97.375C97.3008 39.2617 97.1816 39.4189 97.0176 39.5811C96.8535 39.7432 96.6406 39.8789 96.3789 39.9883C96.1172 40.0977 95.8008 40.1523 95.4297 40.1523ZM95.6113 39.2207C96.002 39.2207 96.332 39.1445 96.6016 38.9922C96.8711 38.8398 97.0762 38.6416 97.2168 38.3975C97.3574 38.1533 97.4277 37.8984 97.4277 37.6328V36.7246C97.3848 36.7754 97.291 36.8213 97.1465 36.8623C97.002 36.9033 96.8369 36.9395 96.6514 36.9707C96.4658 37.002 96.2861 37.0283 96.1123 37.0498C95.9385 37.0713 95.8008 37.0879 95.6992 37.0996C95.4453 37.1309 95.208 37.1846 94.9873 37.2607C94.7666 37.3369 94.5898 37.4482 94.457 37.5947C94.3242 37.7412 94.2578 37.9395 94.2578 38.1895C94.2578 38.416 94.3164 38.6055 94.4336 38.7578C94.5508 38.9102 94.7109 39.0254 94.9141 39.1035C95.1172 39.1816 95.3496 39.2207 95.6113 39.2207ZM101.389 31.2695V40H100.334V31.2695H101.389ZM106.744 40V31.2695H107.857V35.043H112.439V31.2695H113.553V40H112.439V36.0273H107.857V40H106.744ZM117.754 40.082C117.312 40.082 116.925 39.9912 116.591 39.8096C116.257 39.6279 115.997 39.3535 115.812 38.9863C115.626 38.6191 115.533 38.1602 115.533 37.6094V33.4492H116.588V37.5215C116.588 38.0254 116.721 38.4199 116.986 38.7051C117.252 38.9902 117.613 39.1328 118.07 39.1328C118.383 39.1328 118.663 39.0645 118.911 38.9277C119.159 38.791 119.355 38.5908 119.5 38.3271C119.645 38.0635 119.717 37.7461 119.717 37.375V33.4492H120.777V40H119.758V38.4121H119.898C119.695 39.0254 119.407 39.457 119.034 39.707C118.661 39.957 118.234 40.082 117.754 40.082ZM125.67 40.1406C125.256 40.1406 124.922 40.0693 124.668 39.9268C124.414 39.7842 124.219 39.6221 124.082 39.4404C123.945 39.2588 123.84 39.1074 123.766 38.9863H123.648V40H122.629V31.2695H123.684V34.498H123.766C123.84 34.3809 123.943 34.2334 124.076 34.0557C124.209 33.8779 124.4 33.7188 124.65 33.5781C124.9 33.4375 125.238 33.3672 125.664 33.3672C126.211 33.3672 126.692 33.5039 127.108 33.7773C127.524 34.0508 127.851 34.4404 128.087 34.9463C128.323 35.4521 128.441 36.0508 128.441 36.7422C128.441 37.4375 128.324 38.0391 128.09 38.5469C127.855 39.0547 127.53 39.4473 127.114 39.7246C126.698 40.002 126.217 40.1406 125.67 40.1406ZM125.512 39.1973C125.922 39.1973 126.265 39.0869 126.54 38.8662C126.815 38.6455 127.022 38.3486 127.161 37.9756C127.3 37.6025 127.369 37.1875 127.369 36.7305C127.369 36.2773 127.301 35.8682 127.164 35.5029C127.027 35.1377 126.821 34.8477 126.546 34.6328C126.271 34.418 125.926 34.3105 125.512 34.3105C125.109 34.3105 124.771 34.4121 124.498 34.6152C124.225 34.8184 124.019 35.1006 123.88 35.4619C123.741 35.8232 123.672 36.2461 123.672 36.7305C123.672 37.2148 123.742 37.6426 123.883 38.0137C124.023 38.3848 124.231 38.6748 124.507 38.8838C124.782 39.0928 125.117 39.1973 125.512 39.1973Z" fill="#9CA3AF"/>
</svg>
