<svg width="32" height="32" viewBox="0 0 32 32" fill="none" xmlns="http://www.w3.org/2000/svg">
<path d="M16.2028 9.19467C14.9388 9.19467 12.9828 7.75733 10.9228 7.808C8.20281 7.844 5.70948 9.38533 4.30815 11.8267C1.48548 16.7267 3.58015 23.964 6.33348 27.9467C7.68415 29.8853 9.27748 32.0667 11.3895 31.9987C13.4161 31.912 14.1761 30.6827 16.6361 30.6827C19.0775 30.6827 19.7695 31.9987 21.9161 31.9467C24.0988 31.912 25.4841 29.9733 26.8175 28.016C28.3588 25.7653 28.9988 23.5827 29.0335 23.4627C28.9815 23.4453 24.7908 21.8347 24.7401 16.9867C24.7055 12.9333 28.0468 10.9947 28.2028 10.908C26.2975 8.12133 23.3721 7.80933 22.3495 7.74C19.6828 7.532 17.4495 9.19333 16.2028 9.19333V9.19467ZM20.7068 5.10667C21.8308 3.75733 22.5735 1.87067 22.3668 0C20.7575 0.0693333 18.8175 1.07333 17.6575 2.424C16.6175 3.61867 15.7188 5.54133 15.9601 7.376C17.7441 7.51467 19.5801 6.45867 20.7055 5.108L20.7068 5.10667Z" fill="#0F172A"/>
</svg>
