<svg width="32" height="32" viewBox="0 0 32 32" fill="none" xmlns="http://www.w3.org/2000/svg">
<path d="M31.5 16C31.5 24.5625 24.55 31.5 15.975 31.5C8.8625 31.5 2.875 26.7313 1.0375 20.225L6.9875 22.6812C7.3875 24.6875 9.16875 26.2062 11.2937 26.2062C13.7437 26.2062 15.7875 24.1812 15.6812 21.6125L20.9625 17.85C24.2188 17.9312 26.95 15.2938 26.95 12.0063C26.95 8.78125 24.325 6.1625 21.0938 6.1625C17.8625 6.1625 15.2375 8.7875 15.2375 12.0063V12.0813L11.5375 17.4375C10.5688 17.3813 9.61875 17.65 8.81875 18.1938L0.5 14.7563C1.1375 6.775 7.81875 0.5 15.975 0.5C24.55 0.5 31.5 7.4375 31.5 16ZM10.2312 24.0187L8.325 23.2313C8.6753 23.9586 9.28013 24.5323 10.025 24.8438C11.7062 25.5438 13.6375 24.7437 14.3375 23.0688C14.675 22.2563 14.6812 21.3625 14.3438 20.55C14.0063 19.7375 13.375 19.1 12.5625 18.7625C11.7563 18.425 10.8938 18.4375 10.1313 18.725L12.1 19.5375C13.3375 20.05 13.925 21.4688 13.4062 22.7062C12.8875 23.95 11.4688 24.5312 10.2312 24.0187ZM21.0938 15.9C18.9416 15.9 17.1938 14.1584 17.1938 12.0063C17.1938 9.85406 18.9416 8.1125 21.0938 8.1125C23.2459 8.1125 24.9937 9.85406 24.9937 12.0063C24.9937 14.1584 23.2459 15.9 21.0938 15.9ZM21.1 14.925C22.7188 14.925 24.0312 13.6125 24.0312 12C24.0312 10.3813 22.7172 9.075 21.1 9.075C19.4828 9.075 18.1688 10.3875 18.1688 12C18.175 13.6125 19.4875 14.925 21.1 14.925Z" fill="#0F172A"/>
</svg>
