<svg width="40" height="48" viewBox="0 0 40 48" fill="none" xmlns="http://www.w3.org/2000/svg">
<path d="M37.4758 14.5777C37.7715 13.6607 37.4758 13.0497 36.2954 13.0497H32.3071C31.2729 13.0497 30.831 13.5847 30.5354 14.1957C30.5354 14.1957 28.468 19.3177 25.589 22.6807C24.628 23.6747 24.2593 23.9807 23.7422 23.9807C23.4476 23.9807 23.1519 23.6747 23.1519 22.7567V14.5017C23.1519 13.4317 22.8563 12.9727 21.9705 12.9727H15.6944C15.1041 12.9727 14.6602 13.4317 14.6602 13.9667C14.6602 14.9607 16.1373 15.1897 16.2846 18.0177V24.1327C16.2846 25.4327 16.0632 25.7387 15.5471 25.7387C14.2173 25.7387 10.8954 20.5407 8.90121 14.5787C8.53243 13.4317 8.0895 12.9727 7.1295 12.9727H3.06804C1.88755 12.9727 1.73926 13.5077 1.73926 14.1197C1.73926 15.1897 3.06804 20.6937 8.0895 27.9547C11.4115 32.9237 16.1383 35.5987 20.3461 35.5987C22.9305 35.5987 23.2261 34.9877 23.2261 33.9937V30.2497C23.2261 29.0267 23.4476 28.8737 24.2602 28.8737C24.8505 28.8737 25.8836 29.1787 28.2466 31.5487C30.9783 34.3767 31.4212 35.6767 32.9724 35.6767H36.9588C38.1402 35.6767 38.6573 35.0647 38.3617 33.9187C37.9929 32.7717 36.6641 31.0907 34.9656 29.0267C34.0056 27.8797 32.6027 26.6567 32.2339 26.0447C31.6427 25.2047 31.791 24.8987 32.2339 24.2107C32.0856 24.1337 36.9588 16.9487 37.4758 14.5787V14.5777Z" fill="#3076FF"/>
</svg>
