<svg width="172" height="52" viewBox="0 0 172 52" fill="none" xmlns="http://www.w3.org/2000/svg">
<path d="M159.347 36.0703V17.1543H171.975V20.3704H163.215V24.936H171.307V28.0972H163.215V32.8543H172V36.0703H159.347Z" fill="white"/>
<path d="M142.97 36.0703V17.1543H150.328C151.759 17.1543 152.977 17.4084 153.981 17.9165C154.985 18.4247 155.752 19.1406 156.28 20.0642C156.808 20.9878 157.072 22.0696 157.072 23.3095C157.072 24.5586 156.805 25.633 156.27 26.5329C155.734 27.4327 154.958 28.1225 153.94 28.6023C152.922 29.0821 151.688 29.322 150.238 29.322H145.255V26.1824H149.625C150.411 26.1824 151.059 26.0741 151.569 25.8575C152.079 25.641 152.459 25.32 152.71 24.8945C152.962 24.469 153.087 23.9407 153.087 23.3095C153.087 22.6705 152.962 22.1321 152.71 21.6943C152.459 21.2565 152.078 20.9231 151.566 20.6942C151.054 20.4653 150.403 20.3508 149.613 20.3508H146.838V36.0703H142.97ZM153.463 36.0703L148.879 27.4626H153.064L157.752 36.0703H153.463Z" fill="white"/>
<path d="M131.932 36.3242C130.266 36.3242 128.768 35.9431 127.438 35.1808C126.108 34.4184 125.057 33.3138 124.286 31.8669C123.515 30.42 123.129 28.6727 123.129 26.625C123.129 24.5643 123.515 22.8093 124.286 21.3601C125.057 19.9109 126.108 18.8053 127.438 18.0433C128.768 17.2814 130.266 16.9004 131.932 16.9004C133.599 16.9004 135.095 17.2814 136.42 18.0433C137.746 18.8053 138.795 19.9109 139.566 21.3601C140.338 22.8093 140.724 24.5643 140.724 26.625C140.724 28.6772 140.338 30.4268 139.566 31.8738C138.795 33.3207 137.746 34.4242 136.42 35.1842C135.095 35.9442 133.599 36.3242 131.932 36.3242ZM131.932 32.8832C132.909 32.8832 133.762 32.6433 134.491 32.1634C135.221 31.6835 135.788 30.9774 136.194 30.0449C136.6 29.1125 136.803 27.9725 136.803 26.625C136.803 25.2651 136.6 24.1178 136.194 23.1831C135.788 22.2484 135.221 21.5411 134.491 21.0612C133.762 20.5814 132.909 20.3414 131.932 20.3414C130.956 20.3414 130.103 20.5823 129.371 21.0641C128.64 21.546 128.07 22.2542 127.662 23.1889C127.254 24.1236 127.05 25.269 127.05 26.625C127.05 27.9725 127.254 29.1116 127.662 30.042C128.07 30.9725 128.64 31.6786 129.371 32.1605C130.103 32.6423 130.956 32.8832 131.932 32.8832Z" fill="white"/>
<path d="M113.356 36.3242C111.685 36.3242 110.189 35.9431 108.868 35.1808C107.548 34.4184 106.506 33.3138 105.743 31.8669C104.981 30.42 104.6 28.6727 104.6 26.625C104.6 24.5643 104.984 22.8093 105.754 21.3601C106.523 19.9109 107.569 18.8053 108.892 18.0433C110.215 17.2814 111.703 16.9004 113.356 16.9004C114.428 16.9004 115.427 17.0503 116.352 17.3502C117.278 17.6501 118.099 18.0881 118.815 18.6644C119.531 19.2407 120.118 19.945 120.577 20.7772C121.035 21.6094 121.335 22.5579 121.476 23.6226H117.567C117.478 23.1035 117.314 22.6419 117.076 22.2378C116.837 21.8338 116.538 21.4899 116.176 21.2062C115.815 20.9225 115.403 20.7075 114.94 20.561C114.477 20.4146 113.977 20.3414 113.438 20.3414C112.458 20.3414 111.597 20.5869 110.857 21.0779C110.116 21.5688 109.542 22.2817 109.133 23.2164C108.725 24.1511 108.52 25.2873 108.52 26.625C108.52 27.9863 108.728 29.1331 109.143 30.0655C109.558 30.9979 110.134 31.7006 110.869 32.1737C111.605 32.6467 112.457 32.8832 113.424 32.8832C113.963 32.8832 114.463 32.809 114.923 32.6606C115.384 32.5123 115.797 32.2972 116.163 32.0155C116.528 31.7337 116.833 31.3899 117.076 30.9839C117.319 30.5779 117.487 30.1173 117.581 29.602H121.49C121.384 30.48 121.124 31.3204 120.709 32.1233C120.294 32.9262 119.739 33.6441 119.043 34.2772C118.347 34.9103 117.523 35.4097 116.57 35.7755C115.617 36.1413 114.546 36.3242 113.356 36.3242Z" fill="white"/>
<path d="M86.0039 36.0703V17.1543H90.3158L96.2707 26.7299C96.5735 27.2213 96.882 27.7536 97.1962 28.3268C97.5105 28.8999 97.8297 29.5377 98.1539 30.2401C98.4781 30.9425 98.8029 31.7341 99.1281 32.6148H98.7316C98.6739 31.9098 98.6202 31.1611 98.5705 30.3687C98.5208 29.5764 98.4803 28.8152 98.4491 28.0852C98.4179 27.3552 98.4023 26.7384 98.4023 26.2348V17.1543H102.352V36.0703H98.0286L92.622 27.3889C92.2232 26.7341 91.8542 26.1012 91.515 25.4899C91.1757 24.8787 90.823 24.2009 90.4566 23.4567C90.0903 22.7125 89.6532 21.8255 89.1452 20.7957H89.6361C89.6919 21.7077 89.7447 22.5844 89.7944 23.4256C89.8441 24.2669 89.8841 25.0272 89.9143 25.7065C89.9445 26.3858 89.9596 26.9427 89.9596 27.3772V36.0703H86.0039Z" fill="white"/>
<path d="M83.2419 17.1543V36.0703H79.374V17.1543H83.2419Z" fill="white"/>
<path d="M64.8086 36.0703V17.1543H77.2182V20.3704H68.6764V25.652H76.3848V28.8132H68.6764V36.0703H64.8086Z" fill="white"/>
<rect width="51.8466" height="52" rx="8" fill="#2563EB"/>
<path d="M12.1546 20.1449L24.1482 25.9535C24.4605 26.1028 24.8773 26.1808 25.2898 26.1808C25.7024 26.1808 26.1192 26.1028 26.4309 25.9535L38.4244 20.1449C39.0551 19.8402 39.0551 19.3418 38.4244 19.0359L26.4309 13.2273C26.1192 13.078 25.7018 13 25.2898 13C24.8779 13 24.4605 13.078 24.1482 13.2273L12.1546 19.0359C11.524 19.3418 11.524 19.839 12.1546 20.1449Z" fill="white"/>
<path d="M38.4236 26.0949C38.5658 25.8036 36.2333 25.0358 35.9429 24.8932C35.9429 24.8932 35.5741 24.7585 35.2691 24.9005L26.4228 29.1801C26.0627 29.336 25.6739 29.4137 25.2818 29.408C24.8704 29.408 24.4524 29.3294 24.1407 29.1801C24.1407 29.1801 15.826 25.1583 15.436 24.9645C15.0137 24.7603 14.8922 24.7603 14.5076 24.9431L12.138 26.0876C11.5074 26.3922 11.5074 26.8913 12.138 27.1966L24.1334 33.0052C24.4451 33.1545 24.8625 33.2325 25.2745 33.2325C25.6864 33.2325 26.1038 33.1545 26.4161 33.0052L38.4097 27.1978C39.0543 26.898 39.0543 26.4008 38.4236 26.0949Z" fill="white"/>
<path d="M38.4233 33.1538C38.5673 32.8626 36.233 32.0947 35.9425 31.9503C35.9425 31.9503 35.5737 31.8156 35.2687 31.9576L26.4297 36.2464C26.0696 36.4021 25.6807 36.4795 25.2887 36.4737C24.8773 36.4737 24.4593 36.3957 24.147 36.2464C24.147 36.2464 15.8323 32.2245 15.4429 32.0308C15.0176 31.8242 14.8961 31.8242 14.5139 32.0094L12.1444 33.1538C11.5131 33.4585 11.5131 33.957 12.1444 34.2629L24.1379 40.0715C24.4496 40.2275 24.867 40.2988 25.279 40.2988C25.6909 40.2988 26.1083 40.2208 26.42 40.0715L38.416 34.2659C39.0539 33.957 39.0539 33.4597 38.4233 33.1538Z" fill="white"/>
</svg>
