<svg width="38" height="48" viewBox="0 0 38 48" fill="none" xmlns="http://www.w3.org/2000/svg">
<path d="M1.5127 16.6483C1.5127 11.0363 6.0617 6.48828 11.6727 6.48828H26.3797C31.9917 6.48828 36.5397 11.0363 36.5397 16.6483V31.3543C36.5397 36.9653 31.9917 41.5143 26.3797 41.5143H11.6727C6.0617 41.5143 1.5127 36.9653 1.5127 31.3543V16.6483Z" fill="#0F172A"/>
<path d="M14.316 31.5748C14.812 31.8058 15.313 31.9008 15.864 31.9008C17.824 31.9008 19.479 30.3808 19.54 28.5108V11.6758H23.9C23.9 12.0268 23.96 12.3778 24.022 12.7278H24.02C24.1826 13.5072 24.5012 14.2456 24.9566 14.8987C25.412 15.5517 25.9948 16.1059 26.67 16.5278L26.737 16.5998C27.691 17.1408 28.807 17.4628 29.922 17.4628V18.3948L29.937 18.3978V21.6718C27.76 21.6718 25.642 21.0288 23.887 19.8018V28.3348C23.887 32.6018 20.258 36.1088 15.963 36.0508C14.33 36.0508 12.696 35.5828 11.365 34.6478C11.0988 34.3675 10.8519 34.0695 10.626 33.7558C10.861 34.0928 11.125 34.4108 11.415 34.7058C9.31702 33.3038 7.99902 30.9658 7.99902 28.3358C7.99902 24.0678 11.534 20.6188 15.909 20.6188C16.269 20.6188 16.628 20.6188 16.987 20.6778V21.6718C16.9884 21.6718 16.9897 21.6718 16.991 21.6718V24.9448C16.6397 24.8299 16.2726 24.7709 15.903 24.7698C13.906 24.7698 12.273 26.3478 12.273 28.2768C12.273 29.6208 12.999 30.8488 14.209 31.4328C14.243 31.4818 14.279 31.5288 14.316 31.5748Z" fill="white"/>
</svg>
