<svg width="116" height="48" viewBox="0 0 116 48" fill="none" xmlns="http://www.w3.org/2000/svg">
<path d="M4.26958 35.4627C1.97076 34.1307 1.16683 31.1487 2.49428 28.8417L12.0456 12.2217C13.3912 9.91475 16.3628 9.10775 18.6808 10.4397C20.9796 11.7717 21.7836 14.7537 20.4561 17.0617L10.9048 33.6817C10.5886 34.2322 10.1657 34.7151 9.66051 35.1029C9.15528 35.4906 8.57769 35.7754 7.96098 35.941C7.34427 36.1065 6.70063 36.1495 6.0671 36.0674C5.43357 35.9853 4.82268 35.7798 4.26958 35.4627Z" fill="#F9E000"/>
<path d="M28.2896 35.3915C25.9908 36.7235 23.0192 35.9355 21.6927 33.6095L12.1222 17.0095C10.7948 14.7015 11.5806 11.7195 13.8975 10.3695C14.6237 9.94969 15.4496 9.72914 16.2902 9.73047H16.3093C17.9727 9.73047 19.6179 10.5935 20.4954 12.1505L30.0478 28.7705C31.3924 31.0775 30.5894 34.0605 28.2896 35.3915Z" fill="#3076FF"/>
<path d="M11.6499 31.1884C11.6499 33.9084 9.46305 36.1024 6.75269 36.1024C4.04232 36.1214 1.85547 33.9074 1.85547 31.1874C1.85547 28.4874 4.04232 26.2734 6.75269 26.2734C9.46305 26.2734 11.6489 28.4864 11.6489 31.1884H11.6499Z" fill="#008F2D"/>
<path d="M94.1892 19.6455L92.424 24.6955H96.0735L94.1892 19.6455ZM99.0158 29.0255H97.4856L96.4265 26.0185H91.8349L90.7758 29.0245H89.2456L93.3661 17.9625H94.8963L99.0158 29.0255ZM110.904 29.2655C109.139 29.2655 108.079 28.1835 107.609 27.1005L108.903 26.6205C109.256 27.5815 110.08 28.0625 110.904 28.0625C111.728 28.0625 112.435 27.5825 112.435 26.9805C112.435 26.6205 112.199 26.1385 111.375 26.0185L109.845 25.6585C109.139 25.5385 107.844 24.9365 107.844 23.4935C107.844 22.1705 109.256 21.2085 110.786 21.2085C112.081 21.2085 113.259 21.8105 113.612 23.0125L112.435 23.4935C112.199 22.7725 111.492 22.4115 110.786 22.4115C109.962 22.4115 109.256 22.7715 109.256 23.3735C109.256 23.8535 109.609 24.0945 110.198 24.2145L111.728 24.5755C113.259 24.9365 113.73 25.8985 113.73 26.7405C113.847 28.1825 112.553 29.2655 110.904 29.2655ZM103.017 22.5315C101.723 22.5315 100.664 23.6135 100.664 25.2975C100.664 26.9805 101.841 28.0625 103.017 28.0625C104.312 28.0625 105.372 27.1005 105.372 25.2975C105.372 23.4935 104.194 22.5315 103.017 22.5315ZM102.782 29.2655C100.899 29.2655 99.2519 27.5815 99.2519 25.1775C99.2519 22.8925 100.899 21.0885 102.782 21.0885C103.959 21.0885 104.902 21.6905 105.372 22.4115H105.49L105.255 21.4495V17.9625H106.667V29.0245H105.372V27.9425H105.255C104.902 28.6645 103.959 29.2655 102.782 29.2655ZM77.7102 29.0255H75.945V16.9995H77.7102V29.0235V29.0255ZM53.4621 22.6515C52.285 22.6515 51.2259 23.6135 51.2259 25.1775C51.2259 26.6195 52.285 27.7025 53.4621 27.7025C54.6393 27.7025 55.6984 26.6195 55.6984 25.1765C55.8164 23.7345 54.7573 22.6515 53.4621 22.6515ZM53.4621 29.2655C51.2259 29.2655 49.4606 27.5815 49.4606 25.1775C49.4606 22.7725 51.2259 21.0885 53.4621 21.0885C55.6984 21.0885 57.4646 22.7725 57.4646 25.1765C57.4646 27.5815 55.6994 29.2655 53.4621 29.2655ZM62.2902 22.6515C61.1131 22.6515 60.054 23.6135 60.054 25.1775C60.054 26.6195 61.1131 27.7025 62.2902 27.7025C63.4674 27.7025 64.5275 26.6195 64.5275 25.1765C64.5275 23.7345 63.4684 22.6515 62.2902 22.6515ZM62.2902 29.2655C60.054 29.2655 58.2887 27.5815 58.2887 25.1775C58.2887 22.7725 60.054 21.0885 62.2902 21.0885C64.5275 21.0885 66.2927 22.7725 66.2927 25.1765C66.2927 27.5815 64.5275 29.2655 62.2902 29.2655ZM43.1048 29.2655C39.6904 29.2655 36.748 26.3795 36.748 22.8925C36.748 19.4055 39.6904 16.5195 43.1038 16.5195C44.9871 16.5195 46.4003 17.2405 47.3414 18.3235L46.1642 19.5255C45.4581 18.8045 44.399 18.3235 43.1038 18.3235C40.6325 18.3235 38.6313 20.3675 38.6313 22.8925C38.6313 25.4175 40.6325 27.4625 43.1038 27.4625C44.752 27.4625 45.6932 26.7405 46.2812 26.1385C46.7533 25.6585 47.1063 24.9365 47.2234 23.9745H43.1038V22.2915H48.7546C48.8716 22.6515 48.8716 23.0125 48.8716 23.3735C48.8716 24.6965 48.5185 26.2595 47.3414 27.4615C46.2822 28.6645 44.8701 29.2655 43.1048 29.2655ZM82.4188 22.6515C81.4766 22.6515 80.3005 23.4935 80.3005 25.0565L83.8309 23.4935C83.7139 23.0135 83.1248 22.6515 82.4188 22.6515ZM82.5368 29.2655C80.3005 29.2655 78.5343 27.4615 78.5343 25.1775C78.5343 22.7725 80.2995 21.0885 82.3007 21.0885C84.419 21.0885 85.3611 22.7725 85.7142 23.7345L85.9502 24.2145L80.5355 26.4995C80.8886 27.3415 81.5947 27.7025 82.5368 27.7025C83.4779 27.7025 84.067 27.2215 84.538 26.6195L85.9502 27.5815C85.4791 28.1835 84.42 29.2655 82.5368 29.2655ZM71.0013 22.6515C69.8242 22.6515 68.764 23.7345 68.764 25.1775C68.764 26.6195 69.8232 27.7025 71.0013 27.7025C72.1785 27.7025 73.1196 26.6195 73.1196 25.1765C73.2376 23.7345 72.2955 22.6515 71.0013 22.6515ZM70.8833 32.9925C68.8821 32.9925 67.8229 31.6705 67.3529 30.5875L68.8821 29.9875C69.1171 30.7075 69.8242 31.4295 70.8833 31.4295C72.1785 31.4295 73.0016 30.5875 73.0016 29.0245V28.4235H72.8846C72.5315 28.9045 71.7074 29.3855 70.7663 29.3855C68.7651 29.3855 66.8808 27.5815 66.8808 25.2975C66.8808 23.0125 68.764 21.2095 70.7653 21.2095C71.7074 21.2095 72.5305 21.6895 72.8836 22.1705H73.0026V21.3295H74.6498V28.6645C74.7678 31.6705 73.0026 32.9925 70.8833 32.9925Z" fill="#9CA3AF"/>
</svg>
