<svg width="40" height="48" viewBox="0 0 40 48" fill="none" xmlns="http://www.w3.org/2000/svg">
<path d="M19.8541 42.8085C29.9907 42.8085 38.2073 34.3875 38.2073 23.9985C38.2073 13.6085 29.9907 5.1875 19.8551 5.1875C9.71854 5.1875 1.50293 13.6095 1.50293 23.9975C1.50293 34.3875 9.71952 42.8085 19.8541 42.8085Z" fill="url(#paint0_linear_2010_2613)"/>
<path d="M11.8994 25.6626L14.6038 33.3166C14.6038 33.3166 14.9423 34.0326 15.3043 34.0326C15.6662 34.0326 21.0516 28.3046 21.0516 28.3046L27.0399 16.4766L11.996 23.6866L11.8994 25.6626Z" fill="#C8DAEA"/>
<path d="M11.9893 25.9645L6.42832 24.1045C6.42832 24.1045 5.76491 23.8275 5.97759 23.2005C6.02247 23.0705 6.11125 22.9605 6.37759 22.7715C7.60881 21.8905 29.1815 13.9315 29.1815 13.9315C29.1815 13.9315 29.7912 13.7205 30.1503 13.8605C30.2391 13.8887 30.3191 13.9406 30.382 14.0109C30.4449 14.0812 30.4885 14.1673 30.5083 14.2605C30.5473 14.4255 30.563 14.5955 30.5571 14.7645C30.5542 14.9115 30.5376 15.0465 30.5239 15.2595C30.3932 17.4365 26.4605 33.6765 26.4605 33.6765C26.4605 33.6765 26.2264 34.6265 25.3825 34.6595C25.1754 34.6663 24.969 34.6304 24.7758 34.5538C24.5825 34.4771 24.4063 34.3614 24.2576 34.2135C22.6039 32.7535 16.8869 28.8095 15.6234 27.9415C15.5951 27.9215 15.5712 27.8955 15.5534 27.8654C15.5356 27.8352 15.5242 27.8015 15.52 27.7665C15.5025 27.6745 15.5991 27.5615 15.5991 27.5615C15.5991 27.5615 25.5542 18.4795 25.8186 17.5255C25.8391 17.4515 25.762 17.4155 25.6576 17.4475C24.9961 17.6975 13.5356 25.1275 12.2703 25.9475C12.1792 25.9756 12.083 25.9814 11.9893 25.9645Z" fill="white"/>
<defs>
<linearGradient id="paint0_linear_2010_2613" x1="19.8551" y1="42.8095" x2="19.8551" y2="5.1875" gradientUnits="userSpaceOnUse">
<stop stop-color="#1D93D2"/>
<stop offset="1" stop-color="#38B0E3"/>
</linearGradient>
</defs>
</svg>
