<svg width="119" height="48" viewBox="0 0 119 48" fill="none" xmlns="http://www.w3.org/2000/svg">
<path fill-rule="evenodd" clip-rule="evenodd" d="M12.3958 14.4414C6.73077 14.4414 2.13477 19.0514 2.13477 24.7344C2.13477 30.4174 6.73077 35.0274 12.3958 35.0274C18.0618 35.0274 22.6578 30.4174 22.6578 24.7344H19.2288C19.2288 28.5394 16.1528 31.5884 12.3958 31.5884C8.60277 31.5884 5.56277 28.5034 5.56277 24.7344C5.56277 20.9294 8.63877 17.8804 12.3958 17.8804V14.4424V14.4414Z" fill="#FC3F1D"/>
<path fill-rule="evenodd" clip-rule="evenodd" d="M19.2409 11.0273L15.8369 14.4423V18.9293L13.3449 21.4173C13.0529 21.3573 12.7609 21.2833 12.4329 21.2833C11.9818 21.2835 11.5352 21.3726 11.1185 21.5456C10.7019 21.7186 10.3235 21.9721 10.005 22.2915C9.68648 22.6109 9.43411 22.9901 9.26233 23.4072C9.09055 23.8243 9.00273 24.2712 9.00392 24.7223C9.00392 26.6373 10.5239 28.1613 12.4079 28.1613C12.859 28.1612 13.3057 28.0721 13.7223 27.8991C14.1389 27.7261 14.5173 27.4726 14.8358 27.1532C15.1544 26.8337 15.4067 26.4546 15.5785 26.0375C15.7503 25.6204 15.8381 25.1735 15.8369 24.7223C15.8369 24.4293 15.7999 24.1373 15.7399 23.8443L18.2929 21.2833H22.7309L26.1349 17.8683H19.2399L19.2409 11.0273Z" fill="#FC3F1D"/>
<path d="M45.5559 23.0488V29.8088H43.6219V23.4468C43.6219 22.3138 42.4009 21.0948 41.2029 21.0948C39.2079 21.0948 38.4709 22.6508 38.4709 23.4098V29.8458H36.4999V23.5088C36.4999 22.7488 35.7619 21.1188 33.9849 21.1188C32.3399 21.1188 31.3489 22.6118 31.3489 23.6328V29.8698H29.3779V19.3998H31.3609V20.8318C31.3609 20.8318 32.5579 19.2018 34.5769 19.2018C37.1169 19.2018 38.0599 21.3918 38.0839 21.4168C38.1199 21.3168 39.3049 19.1638 41.6269 19.1638C43.8869 19.2008 45.5569 21.0938 45.5569 23.0478L45.5559 23.0488ZM108.663 25.2018C108.699 25.0408 108.699 24.8418 108.699 24.6668C108.699 21.8168 106.547 19.2648 103.355 19.2648C100.453 19.2648 98.0099 21.7788 98.0099 24.6668C98.0099 27.6798 100.453 30.1438 103.355 30.1438C106.16 30.1438 107.538 28.3518 108.119 27.0568L106.184 26.5968C105.567 27.5548 104.503 28.1898 103.318 28.1898C101.613 28.1898 100.199 26.8958 99.9329 25.2398L108.663 25.2018ZM100.066 23.6468C100.453 22.3148 101.904 21.1568 103.355 21.1568C104.902 21.1568 106.256 22.1898 106.643 23.6468H100.066ZM56.9349 19.4018L50.9129 33.3688H48.7609L50.3449 29.7838L45.9439 19.4018H48.0469L51.3969 27.2938L54.8069 19.4018H56.9349ZM75.5799 19.4018V20.4348C75.5799 20.4348 74.2259 19.1768 72.1699 19.1768C69.2439 19.1768 66.8259 21.8908 66.8259 24.6548C66.8259 27.6048 69.1469 30.1318 72.1699 30.1318C74.5159 30.1318 75.5799 28.8748 75.5799 28.8748V29.8708H77.5509V19.4008L75.5799 19.4018ZM72.2069 28.1518C70.1509 28.1518 68.7599 26.4598 68.7599 24.6418C68.7599 22.8498 70.3439 21.1318 72.2069 21.1318C73.9839 21.1318 75.6529 22.6258 75.6529 24.6418C75.6529 26.6588 74.2629 28.1518 72.2069 28.1518ZM85.8579 19.4638V21.2938C83.1859 21.2938 81.3479 23.1488 81.3109 25.5008V29.8078H79.3409V19.4018H81.3109V21.8918C81.3109 21.8918 82.2789 19.4758 85.3379 19.4758C85.5679 19.4638 85.8579 19.4638 85.8579 19.4638ZM94.7449 19.4018V20.2978C94.7449 20.2978 93.3299 19.2018 91.5529 19.2018C88.6509 19.2018 86.4019 21.8168 86.4019 24.4428C86.4019 28.0908 89.4249 29.7208 91.5529 29.7208C93.7779 29.7208 94.8059 28.5258 94.8059 28.5258C94.8059 28.5258 94.8659 28.8868 94.8659 29.0608C94.8659 30.4178 94.1289 32.4108 91.5769 32.4108C90.8247 32.411 90.0955 32.1505 89.5136 31.6738C88.9317 31.197 88.5328 30.5334 88.3849 29.7958H86.4499C86.8009 32.3478 88.9659 34.3768 91.5769 34.3768C94.1889 34.3768 96.3409 32.3848 96.7039 29.7958C96.7399 29.6338 96.7399 29.4598 96.7639 29.3358V19.3638H94.7339V19.4018H94.7449ZM91.5649 27.6918C89.5949 27.6918 88.4089 25.9618 88.4089 24.4428C88.4089 22.6508 89.9929 21.2318 91.5649 21.2318C93.0519 21.2318 94.7209 22.3638 94.7209 24.4428C94.7209 26.3978 93.4269 27.6918 91.5649 27.6918ZM66.2449 29.2858C66.2449 29.2858 65.4349 30.1198 63.9239 30.1198C61.6739 30.1198 60.1509 28.1898 60.1509 26.4348V21.2318H57.9999V19.4018H60.1519V16.2148H62.1229V19.4018H65.6299V21.2318H62.1229V26.2358C62.1229 26.9958 62.7029 28.0908 63.9249 28.0908C64.9279 28.0908 65.6649 27.5308 65.6649 27.5308L66.2449 29.2858ZM116.945 29.2858C116.945 29.2858 116.135 30.1198 114.624 30.1198C112.375 30.1198 110.851 28.1898 110.851 26.4348V21.2318H108.699V19.4018H110.851V16.2148H112.822V19.4018H116.329V21.2318H112.822V26.2358C112.822 26.9958 113.403 28.0908 114.624 28.0908C115.628 28.0908 116.365 27.5308 116.365 27.5308L116.945 29.2858Z" fill="#0F172A"/>
</svg>
