<svg width="108" height="48" viewBox="0 0 108 48" fill="none" xmlns="http://www.w3.org/2000/svg">
<path fill-rule="evenodd" clip-rule="evenodd" d="M31.3175 22.0136L36.5675 22.0106C39.8765 22.0106 41.5875 23.4936 41.5895 26.1186C41.5895 27.9446 40.6875 30.2286 36.5725 30.2286H27.4355V17.5586H40.6755V20.4126H31.3155L31.3175 22.0136ZM36.1105 27.3736C37.1385 27.3736 37.7085 26.9166 37.7085 26.1186C37.7085 25.3196 37.1365 24.8636 36.1095 24.8636H31.3155V27.3736H36.1105ZM67.0405 27.3736V27.4876C67.0405 29.3146 65.1005 30.4556 61.4485 30.4556H60.9915C57.1115 30.4556 55.3995 28.9716 55.3995 27.0546V26.9196L59.1655 26.9176C59.2785 27.9446 60.1925 28.1726 61.3335 28.1726C62.6135 28.1726 63.2735 27.9446 63.2735 27.2596C63.2735 26.5636 62.8115 26.3476 61.8385 26.3476L59.8505 26.3466V24.2916H61.7905C62.5905 24.2916 62.9315 24.0636 62.9315 23.4936C62.9315 22.9226 62.3615 22.5806 61.2195 22.5806C60.0785 22.5806 59.5095 22.9226 59.3935 23.6076H55.5135V23.4916C55.5135 21.5516 57.7955 20.5256 61.1055 20.5256H61.3335C64.6435 20.5256 66.6975 21.4386 66.6975 23.0366V23.2656C66.6975 24.6356 65.3955 25.1506 64.5975 25.3216C65.5695 25.5086 67.0395 25.8916 67.0395 27.3746L67.0405 27.3736ZM89.3325 27.2596H93.1765C93.1765 28.0596 92.4785 30.4556 87.3605 30.4546H86.8955C82.1255 30.4546 80.9635 27.8866 80.9635 25.6096V25.3706C80.9635 23.0366 81.9895 20.5256 86.8975 20.5256H87.2405C92.3765 20.5256 93.1756 23.1506 93.1756 25.8836V26.2316L84.7215 26.2306C84.8385 27.3716 85.6435 28.0586 87.3135 28.0586C88.9555 28.0586 89.1915 27.5586 89.3095 27.3086C89.3167 27.292 89.3244 27.2757 89.3325 27.2596ZM89.2965 24.4056C89.2965 23.6076 88.8395 22.8086 87.0135 22.8086C85.4155 22.8086 84.8435 23.4936 84.7305 24.4066L89.2965 24.4056ZM102.408 26.4616H106.189C106.189 27.8316 105.275 30.4556 100.367 30.4546H100.139C95.2305 30.4546 94.2045 27.4886 94.2045 25.6616V25.3196C94.2045 23.4946 95.1745 20.5256 100.139 20.5266H100.367C105.216 20.5266 106.189 23.0386 106.189 24.4076H102.422C102.324 23.8366 101.851 23.0376 100.367 23.0376H100.139C98.6555 23.0376 97.9706 24.1796 97.9706 25.4346V25.5486C97.9706 26.8046 98.7695 27.8306 100.139 27.8306H100.367C101.965 27.8306 102.309 26.9186 102.408 26.4616ZM76.1705 30.2276H79.8225V20.7556H76.1705V24.1786H71.8335V20.7556H68.1815V30.2276H71.8335V26.8036H76.1705V30.2276ZM50.7185 30.2276H54.3715V20.7556H50.6045L46.3825 26.2326V20.7556H42.7295V30.2276H46.4955L50.7185 24.7496V30.2276Z" fill="#585C8B"/>
<path d="M12.0279 34.1651C17.7009 34.1651 22.2999 29.5651 22.2999 23.8931C22.2999 18.2201 17.7009 13.6211 12.0279 13.6211C6.35486 13.6211 1.75586 18.2191 1.75586 23.8931C1.75586 29.5671 6.35486 34.1651 12.0279 34.1651Z" fill="#585C8B"/>
<path d="M15.3419 18.0273V29.7513H13.3489V19.5613H12.4019C10.7759 19.5613 9.80491 20.3613 9.80491 21.6993C9.80491 23.1343 10.4109 23.7973 11.6849 24.6623L12.6979 25.3443L9.74191 29.7623H7.58691L10.2309 25.8223L10.2479 25.7983L10.2239 25.7823C8.78891 24.7543 7.83391 23.6873 7.83391 21.8203C7.83391 19.4453 9.53591 18.0273 12.3909 18.0273H15.3409H15.3419Z" fill="white"/>
</svg>
