<svg width="600" height="500" viewBox="0 0 600 500" fill="none" xmlns="http://www.w3.org/2000/svg">
<path d="M300 250L150 100L300 250Z" fill="#0F172A"/>
<path d="M300 250L150 100L300 250" stroke="#9CA3AF" stroke-width="2"/>
<path d="M300 250L150 400L300 250Z" fill="#0F172A"/>
<path d="M300 250L150 400L300 250" stroke="#9CA3AF" stroke-width="2"/>
<path d="M300 250L450 100L300 250Z" fill="#0F172A"/>
<path d="M300 250L450 100L300 250" stroke="#9CA3AF" stroke-width="2"/>
<path d="M300 250L450 400L300 250Z" fill="#0F172A"/>
<path d="M300 250L450 400L300 250" stroke="#9CA3AF" stroke-width="2"/>
<path d="M120 250C120 349.345 200.655 430 300 430C399.345 430 480 349.345 480 250C480 150.655 399.345 70 300 70C200.655 70 120 150.655 120 250H120" stroke="#E2E8F0"/>
<g filter="url(#filter0_d_111_2687)">
<rect x="204" y="154" width="192" height="192" rx="96" fill="white" shape-rendering="crispEdges"/>
<rect x="204.5" y="154.5" width="191" height="191" rx="95.5" stroke="#F1F5F9" shape-rendering="crispEdges"/>
<g filter="url(#filter1_dd_111_2687)">
<rect x="268" y="190" width="64" height="64" rx="16" fill="#2563EB"/>
<path d="M286.496 215.328L298.833 221.286C299.154 221.439 299.583 221.519 300.007 221.519C300.432 221.519 300.861 221.439 301.181 221.286L313.519 215.328C314.167 215.016 314.167 214.504 313.519 214.191L301.181 208.233C300.861 208.08 300.431 208 300.007 208C299.584 208 299.154 208.08 298.833 208.233L286.496 214.191C285.847 214.504 285.847 215.014 286.496 215.328Z" fill="white"/>
<path d="M313.519 221.432C313.665 221.133 311.266 220.346 310.967 220.2C310.967 220.2 310.588 220.061 310.274 220.207L301.174 224.596C300.803 224.756 300.403 224.836 300 224.83C299.577 224.83 299.147 224.75 298.826 224.596C298.826 224.596 290.273 220.471 289.872 220.273C289.438 220.063 289.313 220.063 288.917 220.251L286.479 221.425C285.831 221.737 285.831 222.249 286.479 222.562L298.819 228.52C299.139 228.673 299.569 228.753 299.993 228.753C300.416 228.753 300.846 228.673 301.167 228.52L313.504 222.563C314.168 222.256 314.168 221.746 313.519 221.432Z" fill="white"/>
<path d="M313.519 228.673C313.667 228.374 311.266 227.587 310.967 227.439C310.967 227.439 310.588 227.3 310.274 227.446L301.181 231.845C300.811 232.004 300.411 232.084 300.008 232.078C299.584 232.078 299.154 231.998 298.833 231.845C298.833 231.845 290.28 227.72 289.879 227.521C289.442 227.309 289.317 227.309 288.924 227.499L286.486 228.673C285.837 228.985 285.837 229.497 286.486 229.81L298.824 235.768C299.144 235.928 299.574 236.001 299.998 236.001C300.421 236.001 300.851 235.921 301.171 235.768L313.511 229.814C314.168 229.497 314.168 228.987 313.519 228.673Z" fill="white"/>
</g>
<path d="M251.443 287V273.904H260.212V276.131H254.129V279.292H259.748V281.48H254.129V284.774H260.229V287H251.443ZM264.952 281.311V287H262.316V277.174H264.805L264.847 279.627H264.689C264.947 278.807 265.338 278.173 265.864 277.724C266.389 277.275 267.066 277.051 267.896 277.051C268.577 277.051 269.17 277.199 269.676 277.495C270.182 277.791 270.575 278.216 270.855 278.768C271.135 279.321 271.275 279.982 271.275 280.75V287H268.639V281.21C268.639 280.599 268.482 280.121 268.167 279.774C267.852 279.427 267.417 279.253 266.861 279.253C266.491 279.253 266.161 279.334 265.873 279.497C265.585 279.659 265.36 279.893 265.197 280.198C265.034 280.504 264.952 280.875 264.952 281.311ZM277.888 290.885C277.07 290.885 276.357 290.781 275.749 290.575C275.141 290.368 274.647 290.083 274.265 289.72C273.883 289.357 273.62 288.941 273.475 288.473L275.741 287.846C275.825 288.027 275.952 288.204 276.124 288.377C276.296 288.55 276.525 288.692 276.811 288.803C277.097 288.913 277.453 288.969 277.879 288.969C278.55 288.969 279.078 288.814 279.463 288.506C279.848 288.197 280.041 287.718 280.041 287.067V285.26H279.834C279.717 285.523 279.547 285.778 279.324 286.023C279.101 286.268 278.81 286.469 278.449 286.626C278.089 286.782 277.642 286.861 277.111 286.861C276.373 286.861 275.702 286.687 275.097 286.341C274.492 285.994 274.011 285.466 273.652 284.758C273.294 284.049 273.114 283.154 273.114 282.071C273.114 280.963 273.297 280.037 273.662 279.293C274.028 278.549 274.513 277.989 275.12 277.614C275.726 277.238 276.392 277.051 277.118 277.051C277.671 277.051 278.135 277.144 278.508 277.33C278.881 277.515 279.184 277.746 279.416 278.022C279.648 278.298 279.824 278.567 279.945 278.828H280.052V277.174H282.648V286.918C282.648 287.803 282.444 288.539 282.036 289.128C281.629 289.716 281.067 290.156 280.352 290.448C279.636 290.739 278.815 290.885 277.888 290.885ZM277.935 284.856C278.387 284.856 278.77 284.746 279.083 284.524C279.397 284.302 279.636 283.981 279.801 283.562C279.966 283.143 280.049 282.64 280.049 282.055C280.049 281.472 279.967 280.964 279.803 280.532C279.64 280.1 279.401 279.764 279.087 279.524C278.774 279.284 278.389 279.164 277.935 279.164C277.475 279.164 277.088 279.288 276.773 279.536C276.458 279.784 276.221 280.125 276.06 280.558C275.899 280.992 275.819 281.491 275.819 282.055C275.819 282.625 275.9 283.12 276.062 283.54C276.224 283.961 276.462 284.286 276.777 284.514C277.092 284.742 277.478 284.856 277.935 284.856ZM284.896 287V277.174H287.531V287H284.896ZM286.213 275.893C285.816 275.893 285.476 275.76 285.192 275.495C284.909 275.23 284.768 274.911 284.768 274.54C284.768 274.16 284.909 273.84 285.192 273.578C285.476 273.315 285.816 273.184 286.213 273.184C286.611 273.184 286.953 273.315 287.236 273.577C287.52 273.839 287.662 274.16 287.662 274.539C287.662 274.911 287.52 275.23 287.236 275.495C286.953 275.76 286.611 275.893 286.213 275.893ZM292.409 281.311V287H289.774V277.174H292.262L292.304 279.627H292.146C292.404 278.807 292.795 278.173 293.321 277.724C293.846 277.275 294.523 277.051 295.353 277.051C296.034 277.051 296.628 277.199 297.133 277.495C297.639 277.791 298.032 278.216 298.312 278.768C298.592 279.321 298.732 279.982 298.732 280.75V287H296.096V281.21C296.096 280.599 295.939 280.121 295.624 279.774C295.309 279.427 294.874 279.253 294.318 279.253C293.948 279.253 293.618 279.334 293.33 279.497C293.042 279.659 292.817 279.893 292.654 280.198C292.491 280.504 292.409 280.875 292.409 281.311ZM305.424 287.192C304.421 287.192 303.556 286.987 302.829 286.576C302.103 286.165 301.545 285.582 301.156 284.826C300.766 284.07 300.571 283.174 300.571 282.138C300.571 281.127 300.765 280.24 301.152 279.477C301.539 278.714 302.086 278.119 302.794 277.692C303.502 277.264 304.334 277.051 305.291 277.051C305.933 277.051 306.533 277.153 307.09 277.358C307.648 277.562 308.137 277.87 308.558 278.283C308.979 278.695 309.308 279.213 309.544 279.837C309.781 280.461 309.899 281.193 309.899 282.035V282.775H301.653V281.116H308.615L307.383 281.561C307.383 281.049 307.305 280.605 307.148 280.227C306.992 279.85 306.761 279.557 306.454 279.348C306.147 279.14 305.766 279.036 305.31 279.036C304.855 279.036 304.468 279.142 304.151 279.352C303.833 279.563 303.592 279.85 303.426 280.211C303.26 280.572 303.177 280.983 303.177 281.444V282.611C303.177 283.18 303.272 283.657 303.463 284.044C303.653 284.43 303.92 284.721 304.265 284.915C304.61 285.109 305.01 285.207 305.466 285.207C305.773 285.207 306.053 285.163 306.304 285.075C306.556 284.988 306.772 284.858 306.953 284.686C307.134 284.514 307.272 284.303 307.367 284.051L309.75 284.492C309.592 285.035 309.317 285.509 308.925 285.914C308.533 286.319 308.042 286.633 307.452 286.857C306.862 287.08 306.186 287.192 305.424 287.192ZM311.763 287V273.904H315.882L318.002 279.916C318.091 280.195 318.192 280.558 318.306 281.004C318.421 281.451 318.537 281.932 318.654 282.448C318.772 282.963 318.883 283.464 318.985 283.949C319.088 284.435 319.173 284.858 319.24 285.218H318.714C318.783 284.866 318.868 284.448 318.97 283.965C319.071 283.482 319.18 282.983 319.298 282.466C319.416 281.949 319.532 281.465 319.646 281.015C319.76 280.564 319.861 280.198 319.95 279.916L322.04 273.904H326.168V287H323.476V280.826C323.476 280.54 323.481 280.185 323.49 279.758C323.499 279.332 323.51 278.871 323.524 278.376C323.537 277.882 323.55 277.383 323.562 276.879C323.574 276.376 323.581 275.903 323.584 275.461H323.758C323.644 275.948 323.52 276.45 323.384 276.967C323.247 277.484 323.111 277.986 322.974 278.474C322.838 278.962 322.708 279.409 322.584 279.815C322.461 280.221 322.355 280.558 322.267 280.826L320.099 287H317.837L315.636 280.826C315.547 280.561 315.442 280.227 315.319 279.825C315.197 279.423 315.066 278.979 314.926 278.494C314.786 278.009 314.647 277.507 314.508 276.987C314.369 276.467 314.236 275.959 314.108 275.461H314.319C314.324 275.884 314.333 276.345 314.345 276.843C314.357 277.341 314.369 277.839 314.381 278.338C314.393 278.837 314.404 279.303 314.415 279.736C314.426 280.169 314.431 280.532 314.431 280.826V287H311.763ZM332.869 287.192C331.884 287.192 331.031 286.98 330.311 286.557C329.591 286.133 329.037 285.542 328.647 284.781C328.258 284.021 328.064 283.137 328.064 282.129C328.064 281.114 328.258 280.225 328.647 279.463C329.037 278.702 329.591 278.109 330.311 277.686C331.031 277.263 331.884 277.051 332.869 277.051C333.858 277.051 334.711 277.263 335.429 277.686C336.147 278.109 336.701 278.702 337.09 279.463C337.479 280.225 337.674 281.114 337.674 282.129C337.674 283.137 337.479 284.021 337.09 284.781C336.701 285.542 336.147 286.133 335.429 286.557C334.711 286.98 333.858 287.192 332.869 287.192ZM332.869 285.117C333.339 285.117 333.731 284.987 334.046 284.726C334.362 284.465 334.598 284.109 334.756 283.656C334.913 283.204 334.992 282.692 334.992 282.12C334.992 281.542 334.913 281.028 334.756 280.578C334.598 280.128 334.362 279.773 334.046 279.514C333.731 279.255 333.339 279.126 332.869 279.126C332.4 279.126 332.008 279.255 331.694 279.514C331.379 279.773 331.143 280.127 330.986 280.576C330.828 281.025 330.749 281.54 330.749 282.12C330.749 282.692 330.828 283.204 330.986 283.656C331.143 284.109 331.379 284.465 331.694 284.726C332.008 284.987 332.4 285.117 332.869 285.117ZM345.017 287.163C344.484 287.163 344.033 287.073 343.663 286.893C343.294 286.712 342.994 286.488 342.763 286.222C342.533 285.956 342.356 285.691 342.232 285.427H342.103V287H339.511V273.904H342.147V278.828H342.232C342.352 278.567 342.525 278.299 342.75 278.024C342.974 277.75 343.272 277.519 343.642 277.332C344.012 277.144 344.475 277.051 345.032 277.051C345.76 277.051 346.426 277.238 347.027 277.614C347.629 277.989 348.111 278.551 348.474 279.301C348.836 280.05 349.017 280.984 349.017 282.104C349.017 283.194 348.842 284.116 348.49 284.868C348.139 285.62 347.661 286.191 347.058 286.58C346.454 286.969 345.774 287.163 345.017 287.163ZM344.205 285.051C344.665 285.051 345.051 284.925 345.363 284.673C345.675 284.421 345.911 284.072 346.072 283.626C346.232 283.181 346.313 282.67 346.313 282.096C346.313 281.52 346.233 281.013 346.074 280.572C345.915 280.132 345.679 279.787 345.367 279.538C345.055 279.288 344.668 279.164 344.205 279.164C343.754 279.164 343.37 279.284 343.055 279.526C342.74 279.767 342.5 280.107 342.337 280.544C342.173 280.982 342.091 281.499 342.091 282.096C342.091 282.686 342.174 283.203 342.339 283.646C342.504 284.088 342.744 284.433 343.061 284.68C343.378 284.927 343.759 285.051 344.205 285.051Z" fill="#0F172A"/>
<path d="M268.213 306.117C267.467 306.117 266.802 305.937 266.218 305.575C265.634 305.214 265.175 304.698 264.841 304.028C264.507 303.358 264.34 302.562 264.34 301.641C264.34 300.715 264.507 299.917 264.841 299.247C265.175 298.577 265.634 298.061 266.218 297.697C266.802 297.334 267.467 297.152 268.213 297.152C268.654 297.152 269.071 297.217 269.464 297.346C269.856 297.475 270.209 297.663 270.521 297.911C270.834 298.159 271.095 298.46 271.304 298.813C271.513 299.167 271.656 299.568 271.734 300.018H270.621C270.559 299.717 270.452 299.453 270.302 299.227C270.151 299 269.968 298.809 269.751 298.652C269.534 298.496 269.295 298.379 269.033 298.301C268.771 298.223 268.498 298.184 268.213 298.184C267.689 298.184 267.217 298.316 266.795 298.582C266.373 298.848 266.039 299.237 265.793 299.751C265.547 300.265 265.424 300.895 265.424 301.641C265.424 302.383 265.548 303.011 265.796 303.524C266.044 304.038 266.379 304.427 266.801 304.69C267.223 304.954 267.693 305.086 268.213 305.086C268.498 305.086 268.771 305.046 269.033 304.966C269.295 304.886 269.534 304.769 269.751 304.614C269.968 304.46 270.151 304.269 270.302 304.04C270.452 303.812 270.559 303.549 270.621 303.252H271.734C271.66 303.697 271.519 304.096 271.31 304.447C271.101 304.799 270.84 305.1 270.527 305.35C270.215 305.6 269.862 305.79 269.47 305.921C269.077 306.052 268.658 306.117 268.213 306.117ZM275.982 306.141C275.389 306.141 274.868 306 274.421 305.719C273.974 305.438 273.625 305.043 273.375 304.535C273.125 304.027 273 303.438 273 302.766C273 302.082 273.125 301.485 273.375 300.976C273.625 300.466 273.974 300.07 274.421 299.789C274.868 299.508 275.389 299.367 275.982 299.367C276.58 299.367 277.104 299.508 277.553 299.789C278.002 300.07 278.352 300.466 278.602 300.976C278.852 301.485 278.977 302.082 278.977 302.766C278.977 303.438 278.852 304.027 278.602 304.535C278.352 305.043 278.002 305.438 277.553 305.719C277.104 306 276.58 306.141 275.982 306.141ZM275.982 305.197C276.424 305.197 276.787 305.084 277.072 304.857C277.357 304.631 277.568 304.333 277.705 303.964C277.842 303.595 277.91 303.195 277.91 302.766C277.91 302.332 277.842 301.929 277.705 301.556C277.568 301.183 277.357 300.882 277.072 300.653C276.787 300.425 276.424 300.311 275.982 300.311C275.545 300.311 275.186 300.425 274.904 300.653C274.623 300.882 274.414 301.182 274.277 301.553C274.141 301.924 274.072 302.328 274.072 302.766C274.072 303.195 274.141 303.595 274.277 303.964C274.414 304.333 274.623 304.631 274.904 304.857C275.186 305.084 275.545 305.197 275.982 305.197ZM280.512 306V299.449H281.531V300.457H281.602C281.723 300.125 281.938 299.858 282.249 299.657C282.56 299.456 282.91 299.355 283.301 299.355C283.379 299.355 283.472 299.357 283.579 299.361C283.687 299.365 283.771 299.369 283.834 299.373V300.434C283.803 300.426 283.725 300.414 283.6 300.398C283.475 300.383 283.342 300.375 283.201 300.375C282.889 300.375 282.608 300.44 282.36 300.571C282.112 300.702 281.918 300.882 281.777 301.11C281.637 301.339 281.566 301.602 281.566 301.898V306H280.512ZM287.584 306.141C286.951 306.141 286.405 306 285.946 305.719C285.487 305.438 285.134 305.045 284.886 304.541C284.638 304.037 284.514 303.449 284.514 302.777C284.514 302.105 284.635 301.514 284.877 301.002C285.119 300.49 285.462 300.09 285.905 299.801C286.349 299.512 286.867 299.367 287.461 299.367C287.809 299.367 288.151 299.425 288.489 299.54C288.827 299.655 289.134 299.841 289.409 300.097C289.685 300.353 289.904 300.689 290.068 301.107C290.232 301.525 290.314 302.037 290.314 302.643V303.082H285.229V302.191H289.746L289.254 302.52C289.254 302.09 289.187 301.708 289.052 301.374C288.917 301.04 288.717 300.778 288.451 300.589C288.186 300.399 287.855 300.305 287.461 300.305C287.066 300.305 286.729 300.401 286.447 300.595C286.166 300.788 285.951 301.04 285.803 301.351C285.654 301.661 285.58 301.994 285.58 302.35V302.941C285.58 303.426 285.664 303.837 285.832 304.175C286 304.513 286.235 304.769 286.538 304.942C286.841 305.116 287.191 305.203 287.59 305.203C287.848 305.203 288.082 305.166 288.293 305.092C288.504 305.018 288.686 304.905 288.838 304.755C288.99 304.604 289.107 304.418 289.189 304.195L290.209 304.477C290.107 304.805 289.936 305.094 289.693 305.344C289.451 305.594 289.151 305.789 288.794 305.93C288.437 306.07 288.033 306.141 287.584 306.141ZM298.125 306.152C297.496 306.152 296.95 306.051 296.487 305.848C296.024 305.645 295.662 305.36 295.4 304.995C295.139 304.63 294.99 304.203 294.955 303.715H296.098C296.129 304.043 296.24 304.313 296.432 304.526C296.623 304.739 296.868 304.897 297.167 305.001C297.466 305.104 297.785 305.156 298.125 305.156C298.52 305.156 298.874 305.092 299.188 304.963C299.503 304.834 299.752 304.652 299.936 304.418C300.119 304.184 300.211 303.912 300.211 303.604C300.211 303.322 300.132 303.094 299.974 302.918C299.815 302.742 299.605 302.598 299.344 302.484C299.082 302.371 298.795 302.271 298.482 302.186L297.428 301.887C296.725 301.688 296.178 301.402 295.787 301.031C295.396 300.66 295.201 300.186 295.201 299.607C295.201 299.115 295.334 298.685 295.6 298.315C295.865 297.946 296.225 297.66 296.678 297.457C297.131 297.254 297.639 297.152 298.201 297.152C298.775 297.152 299.283 297.254 299.725 297.457C300.166 297.66 300.515 297.937 300.771 298.286C301.026 298.636 301.162 299.031 301.178 299.473H300.088C300.037 299.047 299.834 298.718 299.479 298.485C299.123 298.253 298.686 298.137 298.166 298.137C297.791 298.137 297.462 298.198 297.179 298.321C296.896 298.444 296.676 298.612 296.52 298.825C296.363 299.038 296.285 299.281 296.285 299.555C296.285 299.859 296.38 300.104 296.569 300.29C296.759 300.476 296.983 300.62 297.243 300.724C297.503 300.827 297.738 300.908 297.949 300.967L298.822 301.207C299.057 301.27 299.315 301.355 299.599 301.465C299.882 301.574 300.152 301.72 300.41 301.901C300.668 302.083 300.88 302.313 301.046 302.593C301.212 302.872 301.295 303.215 301.295 303.621C301.295 304.098 301.171 304.527 300.923 304.91C300.675 305.293 300.314 305.596 299.842 305.818C299.369 306.041 298.797 306.152 298.125 306.152ZM302.795 308.373L303.064 307.459L303.176 307.488C303.391 307.543 303.586 307.558 303.762 307.532C303.938 307.507 304.096 307.42 304.236 307.271C304.377 307.123 304.5 306.893 304.605 306.58L304.793 306.035L302.291 299.449H303.445L304.84 303.334C304.988 303.74 305.113 304.143 305.215 304.541C305.316 304.939 305.424 305.326 305.537 305.701H305.15C305.264 305.326 305.372 304.938 305.476 304.538C305.579 304.138 305.703 303.736 305.848 303.334L307.254 299.449H308.402L305.525 306.979C305.393 307.326 305.233 307.612 305.048 307.837C304.862 308.062 304.646 308.228 304.4 308.335C304.154 308.442 303.877 308.496 303.568 308.496C303.381 308.496 303.219 308.482 303.082 308.455C302.945 308.428 302.85 308.4 302.795 308.373ZM311.871 306.141C311.422 306.141 311.022 306.075 310.673 305.944C310.323 305.813 310.035 305.619 309.809 305.361C309.582 305.104 309.43 304.787 309.352 304.412L310.354 304.172C310.447 304.531 310.624 304.795 310.884 304.963C311.144 305.131 311.469 305.215 311.859 305.215C312.316 305.215 312.681 305.117 312.952 304.922C313.224 304.727 313.359 304.494 313.359 304.225C313.359 303.998 313.28 303.81 313.122 303.659C312.964 303.509 312.723 303.396 312.398 303.322L311.309 303.064C310.715 302.924 310.273 302.706 309.984 302.411C309.695 302.116 309.551 301.738 309.551 301.277C309.551 300.902 309.656 300.571 309.867 300.284C310.078 299.997 310.366 299.772 310.731 299.61C311.097 299.448 311.512 299.367 311.977 299.367C312.426 299.367 312.808 299.435 313.122 299.569C313.437 299.704 313.692 299.89 313.89 300.126C314.087 300.362 314.234 300.635 314.332 300.943L313.377 301.189C313.287 300.955 313.138 300.742 312.929 300.551C312.72 300.359 312.404 300.264 311.982 300.264C311.592 300.264 311.267 300.354 311.007 300.533C310.747 300.713 310.617 300.939 310.617 301.213C310.617 301.455 310.705 301.649 310.881 301.796C311.057 301.942 311.336 302.061 311.719 302.15L312.709 302.385C313.303 302.525 313.742 302.743 314.027 303.038C314.312 303.333 314.455 303.705 314.455 304.154C314.455 304.537 314.347 304.878 314.13 305.177C313.913 305.476 313.61 305.711 313.222 305.883C312.833 306.055 312.383 306.141 311.871 306.141ZM318.557 299.449V300.352H315.17V299.449H318.557ZM316.154 297.891H317.209V304.301C317.209 304.594 317.269 304.808 317.388 304.942C317.507 305.077 317.705 305.145 317.982 305.145C318.049 305.145 318.134 305.137 318.237 305.121C318.341 305.105 318.436 305.09 318.521 305.074L318.738 305.965C318.629 306.004 318.505 306.033 318.366 306.053C318.228 306.072 318.09 306.082 317.953 306.082C317.387 306.082 316.945 305.933 316.629 305.634C316.312 305.335 316.154 304.918 316.154 304.383V297.891ZM322.541 306.141C321.908 306.141 321.362 306 320.903 305.719C320.444 305.438 320.091 305.045 319.843 304.541C319.595 304.037 319.471 303.449 319.471 302.777C319.471 302.105 319.592 301.514 319.834 301.002C320.076 300.49 320.419 300.09 320.862 299.801C321.306 299.512 321.824 299.367 322.418 299.367C322.766 299.367 323.108 299.425 323.446 299.54C323.784 299.655 324.091 299.841 324.366 300.097C324.642 300.353 324.861 300.689 325.025 301.107C325.189 301.525 325.271 302.037 325.271 302.643V303.082H320.186V302.191H324.703L324.211 302.52C324.211 302.09 324.144 301.708 324.009 301.374C323.874 301.04 323.674 300.778 323.408 300.589C323.143 300.399 322.812 300.305 322.418 300.305C322.023 300.305 321.686 300.401 321.404 300.595C321.123 300.788 320.908 301.04 320.76 301.351C320.611 301.661 320.537 301.994 320.537 302.35V302.941C320.537 303.426 320.621 303.837 320.789 304.175C320.957 304.513 321.192 304.769 321.495 304.942C321.798 305.116 322.148 305.203 322.547 305.203C322.805 305.203 323.039 305.166 323.25 305.092C323.461 305.018 323.643 304.905 323.795 304.755C323.947 304.604 324.064 304.418 324.146 304.195L325.166 304.477C325.064 304.805 324.893 305.094 324.65 305.344C324.408 305.594 324.108 305.789 323.751 305.93C323.394 306.07 322.99 306.141 322.541 306.141ZM326.783 306V299.449H327.809L327.814 300.914H327.732C327.822 300.559 327.964 300.265 328.157 300.032C328.351 299.8 328.577 299.625 328.837 299.508C329.097 299.391 329.367 299.332 329.648 299.332C330.125 299.332 330.511 299.479 330.806 299.771C331.101 300.064 331.291 300.449 331.377 300.926H331.236C331.314 300.598 331.457 300.314 331.664 300.076C331.871 299.838 332.122 299.654 332.417 299.525C332.712 299.396 333.033 299.332 333.381 299.332C333.76 299.332 334.105 299.414 334.418 299.578C334.73 299.742 334.979 299.99 335.165 300.322C335.351 300.654 335.443 301.074 335.443 301.582V306H334.389V301.611C334.389 301.139 334.256 300.801 333.99 300.598C333.725 300.395 333.416 300.293 333.064 300.293C332.771 300.293 332.519 300.354 332.306 300.478C332.093 300.601 331.929 300.77 331.813 300.984C331.698 301.199 331.641 301.445 331.641 301.723V306H330.586V301.506C330.586 301.143 330.465 300.85 330.223 300.627C329.98 300.404 329.674 300.293 329.303 300.293C329.049 300.293 328.81 300.353 328.585 300.472C328.36 300.591 328.18 300.768 328.043 301.002C327.906 301.236 327.838 301.527 327.838 301.875V306H326.783Z" fill="#64748B"/>
</g>
<defs>
<filter id="filter0_d_111_2687" x="154" y="124" width="292" height="292" filterUnits="userSpaceOnUse" color-interpolation-filters="sRGB">
<feFlood flood-opacity="0" result="BackgroundImageFix"/>
<feColorMatrix in="SourceAlpha" type="matrix" values="0 0 0 0 0 0 0 0 0 0 0 0 0 0 0 0 0 0 127 0" result="hardAlpha"/>
<feOffset dy="20"/>
<feGaussianBlur stdDeviation="25"/>
<feComposite in2="hardAlpha" operator="out"/>
<feColorMatrix type="matrix" values="0 0 0 0 0.145098 0 0 0 0 0.388235 0 0 0 0 0.921569 0 0 0 0.2 0"/>
<feBlend mode="normal" in2="BackgroundImageFix" result="effect1_dropShadow_111_2687"/>
<feBlend mode="normal" in="SourceGraphic" in2="effect1_dropShadow_111_2687" result="shape"/>
</filter>
<filter id="filter1_dd_111_2687" x="256" y="188" width="88" height="88" filterUnits="userSpaceOnUse" color-interpolation-filters="sRGB">
<feFlood flood-opacity="0" result="BackgroundImageFix"/>
<feColorMatrix in="SourceAlpha" type="matrix" values="0 0 0 0 0 0 0 0 0 0 0 0 0 0 0 0 0 0 127 0" result="hardAlpha"/>
<feMorphology radius="4" operator="erode" in="SourceAlpha" result="effect1_dropShadow_111_2687"/>
<feOffset dy="4"/>
<feGaussianBlur stdDeviation="3"/>
<feComposite in2="hardAlpha" operator="out"/>
<feColorMatrix type="matrix" values="0 0 0 0 0 0 0 0 0 0 0 0 0 0 0 0 0 0 0.1 0"/>
<feBlend mode="normal" in2="BackgroundImageFix" result="effect1_dropShadow_111_2687"/>
<feColorMatrix in="SourceAlpha" type="matrix" values="0 0 0 0 0 0 0 0 0 0 0 0 0 0 0 0 0 0 127 0" result="hardAlpha"/>
<feMorphology radius="3" operator="erode" in="SourceAlpha" result="effect2_dropShadow_111_2687"/>
<feOffset dy="10"/>
<feGaussianBlur stdDeviation="7.5"/>
<feComposite in2="hardAlpha" operator="out"/>
<feColorMatrix type="matrix" values="0 0 0 0 0 0 0 0 0 0 0 0 0 0 0 0 0 0 0.1 0"/>
<feBlend mode="normal" in2="effect1_dropShadow_111_2687" result="effect2_dropShadow_111_2687"/>
<feBlend mode="normal" in="SourceGraphic" in2="effect2_dropShadow_111_2687" result="shape"/>
</filter>
</defs>
</svg>
