<svg width="28" height="28" viewBox="0 0 28 28" fill="none" xmlns="http://www.w3.org/2000/svg">
<path d="M14.5602 12.74V16.5667H23.7069C23.4269 18.7133 22.7117 20.2848 21.6221 21.3885C20.2839 22.7267 18.2002 24.1885 14.5602 24.1885C8.92873 24.1885 4.5269 19.6467 4.5269 14.0152C4.5269 8.38367 8.92873 3.84183 14.5602 3.84183C17.5936 3.84183 19.8184 5.04 21.4517 6.58L24.1432 3.8885C21.8717 1.68 18.8221 0 14.5602 0C6.84506 0 0.358398 6.28483 0.358398 14C0.358398 21.7152 6.84506 28 14.5602 28C18.7287 28 21.8717 26.6315 24.3287 24.08C26.8487 21.56 27.6421 17.9982 27.6421 15.1352C27.6421 14.2485 27.5802 13.4237 27.4402 12.74H14.5602V12.74" fill="#0F172A"/>
</svg>
