<svg width="32" height="32" viewBox="0 0 32 32" fill="none" xmlns="http://www.w3.org/2000/svg">
<path d="M9.22 5.37243C6.596 5.37243 4.30933 7.07909 2.72533 9.52309C0.938667 12.2764 0 15.8431 0 19.2644C0 20.2058 0.0933333 21.0898 0.28 21.8951C0.371648 22.2849 0.489698 22.668 0.633333 23.0418C0.770886 23.3926 0.936303 23.7319 1.128 24.0564C2.056 25.6018 3.552 26.6258 5.91867 26.6258C7.91467 26.6258 9.42933 25.7311 11.2053 23.3671C12.2187 22.0178 12.7307 21.1991 14.756 17.6071L15.764 15.8218L16.012 15.3884C16.0933 15.5218 16.1733 15.6498 16.256 15.7884L19.1253 20.5818C20.0907 22.1951 21.3453 23.9898 22.4187 25.0004C23.8133 26.3164 25.0747 26.6271 26.4987 26.6271C27.932 26.6271 29 26.1538 29.772 25.5031C30.2031 25.1351 30.5683 24.6964 30.852 24.2058C31.5747 22.9538 32 21.3698 32 19.2124C32 15.5858 31.092 12.0698 29.2213 9.27909C27.512 6.72976 25.2787 5.37243 22.9333 5.37243C21.5373 5.37243 20.1493 5.99509 18.8627 7.11643C17.9933 7.87643 17.1867 8.83643 16.436 9.84976C15.516 8.68309 14.656 7.78709 13.8253 7.10843C12.2493 5.82043 10.7387 5.37109 9.22 5.37109V5.37243M22.7667 8.10976C24.296 8.10976 25.684 9.12043 26.756 10.7751C28.2653 13.1058 28.952 16.3684 28.952 19.3084C28.952 21.3724 28.4613 23.1751 26.5 23.1751C25.7267 23.1751 25.1307 22.8684 24.2813 21.8364C23.62 21.0351 22.4907 19.3324 20.5053 16.0258L19.6827 14.6551C19.148 13.7607 18.59 12.8804 18.0093 12.0151C18.1027 11.8698 18.1973 11.7164 18.2907 11.5791C19.784 9.35643 21.1147 8.10976 22.768 8.10976H22.7667M9.16533 8.84709C10.852 8.84709 11.9093 9.90176 12.732 10.7751C13.1413 11.2111 13.7147 11.9364 14.3773 12.8804L13.0173 14.9684C12.008 16.5191 10.508 18.9911 9.23467 20.7524C7.64667 22.9511 6.82133 23.1751 5.92 23.1751C5.22133 23.1751 4.536 22.8591 4.076 22.1164C3.72533 21.5484 3.45733 20.6098 3.45733 19.3884C3.45733 16.4271 4.29733 13.3418 5.67067 11.2711C6.276 10.3551 6.956 9.63643 7.71467 9.22709C8.15856 8.98042 8.65751 8.84972 9.16533 8.84709V8.84709" fill="#0F172A"/>
</svg>
