<svg width="56" height="56" viewBox="0 0 56 56" fill="none" xmlns="http://www.w3.org/2000/svg">
<rect width="56" height="56" rx="16" fill="#DBEAFE"/>
<path d="M26.202 39.1773L23.5332 38.4029C23.2532 38.3242 23.0957 38.031 23.1745 37.751L29.1464 17.1798C29.2251 16.8998 29.5182 16.7423 29.7982 16.821L32.467 17.5954C32.747 17.6742 32.9045 17.9673 32.8257 18.2473L26.8539 38.8185C26.7707 39.0985 26.482 39.2604 26.202 39.1773ZM21.2145 34.2685L23.1176 32.2385C23.3189 32.0242 23.3057 31.6829 23.0826 31.486L19.1189 27.9992L23.0826 24.5123C23.3057 24.3154 23.3232 23.9742 23.1176 23.7598L21.2145 21.7298C21.0176 21.5198 20.6851 21.5067 20.4707 21.7079L14.1664 27.6142C13.9432 27.8198 13.9432 28.1742 14.1664 28.3798L20.4707 34.2904C20.6851 34.4917 21.0176 34.4829 21.2145 34.2685ZM35.5295 34.2948L41.8339 28.3842C42.057 28.1785 42.057 27.8242 41.8339 27.6185L35.5295 21.7035C35.3195 21.5067 34.987 21.5154 34.7857 21.7254L32.8826 23.7554C32.6814 23.9698 32.6945 24.311 32.9176 24.5079L36.8814 27.9992L32.9176 31.486C32.6945 31.6829 32.677 32.0242 32.8826 32.2385L34.7857 34.2685C34.9826 34.4829 35.3151 34.4917 35.5295 34.2948Z" fill="#2563EB"/>
</svg>
