<svg width="56" height="56" viewBox="0 0 56 56" fill="none" xmlns="http://www.w3.org/2000/svg">
<rect width="56" height="56" rx="16" fill="#E2E8F0"/>
<path d="M40.25 22.75H15.75C14.7835 22.75 14 21.9665 14 21V17.5C14 16.5335 14.7835 15.75 15.75 15.75H40.25C41.2165 15.75 42 16.5335 42 17.5V21C42 21.9665 41.2165 22.75 40.25 22.75ZM37.625 17.9375C36.9001 17.9375 36.3125 18.5251 36.3125 19.25C36.3125 19.9749 36.9001 20.5625 37.625 20.5625C38.3499 20.5625 38.9375 19.9749 38.9375 19.25C38.9375 18.5251 38.3499 17.9375 37.625 17.9375ZM34.125 17.9375C33.4001 17.9375 32.8125 18.5251 32.8125 19.25C32.8125 19.9749 33.4001 20.5625 34.125 20.5625C34.8499 20.5625 35.4375 19.9749 35.4375 19.25C35.4375 18.5251 34.8499 17.9375 34.125 17.9375ZM40.25 31.5H15.75C14.7835 31.5 14 30.7165 14 29.75V26.25C14 25.2835 14.7835 24.5 15.75 24.5H40.25C41.2165 24.5 42 25.2835 42 26.25V29.75C42 30.7165 41.2165 31.5 40.25 31.5ZM37.625 26.6875C36.9001 26.6875 36.3125 27.2751 36.3125 28C36.3125 28.7249 36.9001 29.3125 37.625 29.3125C38.3499 29.3125 38.9375 28.7249 38.9375 28C38.9375 27.2751 38.3499 26.6875 37.625 26.6875ZM34.125 26.6875C33.4001 26.6875 32.8125 27.2751 32.8125 28C32.8125 28.7249 33.4001 29.3125 34.125 29.3125C34.8499 29.3125 35.4375 28.7249 35.4375 28C35.4375 27.2751 34.8499 26.6875 34.125 26.6875ZM40.25 40.25H15.75C14.7835 40.25 14 39.4665 14 38.5V35C14 34.0335 14.7835 33.25 15.75 33.25H40.25C41.2165 33.25 42 34.0335 42 35V38.5C42 39.4665 41.2165 40.25 40.25 40.25ZM37.625 35.4375C36.9001 35.4375 36.3125 36.0251 36.3125 36.75C36.3125 37.4749 36.9001 38.0625 37.625 38.0625C38.3499 38.0625 38.9375 37.4749 38.9375 36.75C38.9375 36.0251 38.3499 35.4375 37.625 35.4375ZM34.125 35.4375C33.4001 35.4375 32.8125 36.0251 32.8125 36.75C32.8125 37.4749 33.4001 38.0625 34.125 38.0625C34.8499 38.0625 35.4375 37.4749 35.4375 36.75C35.4375 36.0251 34.8499 35.4375 34.125 35.4375Z" fill="#475569"/>
</svg>
