<svg width="56" height="56" viewBox="0 0 56 56" fill="none" xmlns="http://www.w3.org/2000/svg">
<rect width="56" height="56" rx="16" fill="#F3E8FF"/>
<path d="M35.0027 21H20.9997C17.8226 20.9995 15.0437 23.1387 14.2314 26.2102C13.419 29.2816 14.777 32.5149 17.5389 34.0852C20.3007 35.6555 23.7738 35.1689 25.9977 32.9H30.0017C32.2253 35.1686 35.6978 35.6554 38.4596 34.0857C41.2213 32.516 42.5799 29.2834 41.7685 26.2121C40.9572 23.1408 38.1794 21.0009 35.0027 21ZM24.8497 28.525C24.8497 28.8149 24.6146 29.05 24.3247 29.05H22.0497V31.325C22.0497 31.6148 21.8144 31.85 21.5247 31.85H20.4747C20.1849 31.85 19.9497 31.6148 19.9497 31.325V29.05H17.6747C17.3849 29.05 17.1497 28.8148 17.1497 28.525V27.475C17.1497 27.1852 17.3849 26.95 17.6747 26.95H19.9497V24.675C19.9497 24.3852 20.1849 24.15 20.4747 24.15H21.5247C21.8144 24.15 22.0497 24.3852 22.0497 24.675V26.95H24.3247C24.6144 26.95 24.8497 27.1852 24.8497 27.475V28.525ZM34.2997 31.85C33.3338 31.85 32.5497 31.0659 32.5497 30.1C32.5497 29.1341 33.3338 28.35 34.2997 28.35C35.2655 28.35 36.0497 29.1341 36.0497 30.1C36.0497 31.0659 35.2655 31.85 34.2997 31.85ZM37.0997 27.65C36.1338 27.65 35.3497 26.8659 35.3497 25.9C35.3497 24.9341 36.1338 24.15 37.0997 24.15C38.0655 24.15 38.8497 24.9341 38.8497 25.9C38.8497 26.8659 38.0655 27.65 37.0997 27.65Z" fill="#9333EA"/>
</svg>
