<svg width="56" height="56" viewBox="0 0 56 56" fill="none" xmlns="http://www.w3.org/2000/svg">
<rect width="56" height="56" rx="16" fill="#FEE2E2"/>
<path d="M28 33.25C30.8995 33.25 33.25 30.8995 33.25 28V19.25C33.25 16.3505 30.8995 14 28 14C25.1005 14 22.75 16.3505 22.75 19.25V28C22.75 30.8995 25.1005 33.25 28 33.25ZM36.75 24.5H35.875C35.3916 24.5 35 24.8916 35 25.375V28C35 32.0906 31.4732 35.373 27.3005 34.9661C23.6638 34.6112 21 31.342 21 27.6883V25.375C21 24.8916 20.6084 24.5 20.125 24.5H19.25C18.7666 24.5 18.375 24.8916 18.375 25.375V27.5712C18.375 32.4734 21.8734 36.8435 26.6875 37.5074V39.375H23.625C23.1416 39.375 22.75 39.7666 22.75 40.25V41.125C22.75 41.6084 23.1416 42 23.625 42H32.375C32.8584 42 33.25 41.6084 33.25 41.125V40.25C33.25 39.7666 32.8584 39.375 32.375 39.375H29.3125V37.5282C33.9998 36.8851 37.625 32.8617 37.625 28V25.375C37.625 24.8916 37.2334 24.5 36.75 24.5Z" fill="#DC2626"/>
</svg>
