<svg width="24" height="24" viewBox="0 0 24 24" fill="none" xmlns="http://www.w3.org/2000/svg">
<path d="M18.7538 10.5192C18.7538 11.1443 16.5159 11.6675 13.5157 11.8004L13.5185 11.8011C13.4337 11.8075 12.9952 11.8336 12.0173 11.8336C11.2395 11.8336 10.6873 11.8103 10.4936 11.8011C7.48772 11.6689 5.24412 11.1456 5.24412 10.5192C5.24412 9.89281 7.48772 9.37021 10.4936 9.23581V11.28C10.6901 11.2942 11.253 11.3274 12.0308 11.3274C12.9642 11.3274 13.4316 11.2885 13.5157 11.2808V9.23721C16.5151 9.37091 18.7538 9.89421 18.7538 10.5192ZM23.9438 11.0658L12.1248 22.3906C12.0551 22.4575 11.945 22.4575 11.8752 22.3906L0.0562168 11.0651C-0.00071058 11.0117 -0.016197 10.9274 0.0180168 10.8572L4.39422 1.66511C4.42344 1.60184 4.48713 1.56165 4.55682 1.56251H19.4446C19.5139 1.56234 19.577 1.60269 19.6058 1.66571L23.982 10.8579C24.0162 10.9281 24.0007 11.0124 23.9438 11.0658ZM19.4658 10.662C19.4658 9.85521 16.9143 9.18211 13.5185 9.02511V7.19661H17.7045V4.40711H6.30762V7.19661H10.4928V9.02521C7.09102 9.18141 4.53272 9.85521 4.53272 10.6628C4.53272 11.4703 7.09102 12.1434 10.4928 12.3004V18.1622H13.5178V12.2983C16.9118 12.142 19.4658 11.4688 19.4658 10.662Z" fill="#22C55E"/>
</svg>
